<svg width="771" height="270" viewBox="0 0 771 270" fill="none" xmlns="http://www.w3.org/2000/svg">
<g clip-path="url(#clip0_65_1099)">
<path opacity="0.2" d="M417.288 248C611.851 248 769.576 242.376 769.576 235.437C769.576 228.499 611.851 222.875 417.288 222.875C222.725 222.875 65 228.499 65 235.437C65 242.376 222.725 248 417.288 248Z" fill="#151515"/>
<path d="M476.654 143.722C476.654 246.884 419.047 238.022 347.989 238.022C276.931 238.022 219.324 243.153 219.324 143.722C219.324 72.3868 276.931 31.8828 347.989 31.8828C419.047 31.8828 476.654 72.3911 476.654 143.722Z" fill="#1A272E"/>
<path opacity="0.28" d="M355.658 41.7233C355.658 41.7233 248.613 31.8828 240.307 162.557C240.307 162.557 231.937 240.405 347.989 238.022C347.989 238.022 447.143 241.83 452.005 177.219C456.509 117.386 451.616 48.0604 355.658 41.7233Z" fill="#8D8DB1"/>
<path d="M414.412 202.704C451.097 165.877 451.097 106.17 414.412 69.343C377.726 32.5164 318.246 32.5164 281.56 69.343C244.875 106.17 244.875 165.877 281.56 202.704C318.246 239.53 377.726 239.53 414.412 202.704Z" fill="#8D8DB1"/>
<path d="M409.164 197.437C442.952 163.519 442.952 108.528 409.164 74.6103C375.376 40.6927 320.595 40.6927 286.807 74.6103C253.019 108.528 253.019 163.519 286.807 197.437C320.595 231.354 375.376 231.354 409.164 197.437Z" fill="#BDBDD8"/>
<path d="M347.882 61.4H363.309C365.601 61.4 367.184 63.7141 366.354 65.8608L357.975 87.6069L350.927 105.905C349.849 108.7 345.91 108.7 344.836 105.905L337.788 87.6069L329.409 65.8608C328.579 63.7141 330.162 61.4 332.454 61.4H347.882Z" fill="#1A272E"/>
<path d="M347.882 209.986H332.454C330.162 209.986 328.579 207.672 329.409 205.525L337.788 183.779L344.836 165.481C345.914 162.686 349.853 162.686 350.927 165.481L357.975 183.779L366.354 205.525C367.184 207.672 365.601 209.986 363.309 209.986H347.882Z" fill="#1A272E"/>
<path d="M400.217 83.159L411.128 94.1114C412.749 95.7386 412.24 98.495 410.14 99.4267L388.896 108.855L371.018 116.789C368.289 118 365.505 115.205 366.711 112.466L374.615 94.5193L384.007 73.194C384.935 71.0859 387.681 70.575 389.302 72.2022L400.213 83.1547L400.217 83.159Z" fill="#1A272E"/>
<path d="M295.55 188.223L284.639 177.27C283.018 175.643 283.527 172.887 285.627 171.955L306.871 162.527L324.749 154.593C327.477 153.382 330.262 156.177 329.056 158.916L321.152 176.863L311.759 198.188C310.831 200.296 308.085 200.807 306.464 199.18L295.554 188.227L295.55 188.223Z" fill="#1A272E"/>
<path d="M421.892 135.693V151.179C421.892 153.481 419.587 155.069 417.449 154.236L395.786 145.826L377.557 138.75C374.773 137.668 374.773 133.714 377.557 132.636L395.786 125.561L417.449 117.15C419.587 116.317 421.892 117.906 421.892 120.207V135.693Z" fill="#1A272E"/>
<path d="M273.873 135.693V120.207C273.873 117.906 276.178 116.317 278.317 117.15L299.98 125.561L318.208 132.636C320.993 133.718 320.993 137.672 318.208 138.75L299.98 145.826L278.317 154.236C276.178 155.069 273.873 153.481 273.873 151.179V135.693Z" fill="#1A272E"/>
<path d="M400.217 188.223L389.306 199.175C387.685 200.803 384.939 200.292 384.011 198.184L374.619 176.858L366.715 158.912C365.509 156.173 368.293 153.378 371.022 154.588L388.9 162.523L410.144 171.951C412.244 172.883 412.753 175.639 411.132 177.266L400.221 188.219L400.217 188.223Z" fill="#1A272E"/>
<path d="M295.55 83.159L306.461 72.2065C308.082 70.5793 310.827 71.0902 311.755 73.1983L321.148 94.5236L329.052 112.47C330.258 115.209 327.473 118.004 324.745 116.794L306.867 108.859L285.623 99.431C283.523 98.4993 283.014 95.7429 284.635 94.1157L295.546 83.1633L295.55 83.159Z" fill="#1A272E"/>
<path d="M366.04 140.297C368.395 130.281 362.216 120.245 352.238 117.882C342.261 115.518 332.263 121.721 329.908 131.736C327.554 141.752 333.733 151.788 343.71 154.152C353.688 156.516 363.685 150.313 366.04 140.297Z" fill="#1A272E"/>
<path d="M347.985 143.722C352.22 143.722 355.654 140.275 355.654 136.024C355.654 131.772 352.22 128.326 347.985 128.326C343.75 128.326 340.316 131.772 340.316 136.024C340.316 140.275 343.75 143.722 347.985 143.722Z" fill="white"/>
<path opacity="0.28" d="M276.918 58.4933C276.918 58.4933 222.51 100.762 232.386 159.474C232.386 159.474 211.313 99.6027 276.918 58.4933Z" fill="#8D8DB1"/>
<path opacity="0.28" d="M445.316 80.1107C445.316 80.1107 465.487 113.505 464.071 171.766C464.071 171.766 473.981 110.663 445.316 80.1107Z" fill="#8D8DB1"/>
<path d="M598.703 189.799H497.988V138.814L602.155 0H652.089V137.793H686.595V189.803H652.089V238.215H598.703V189.803V189.799ZM598.703 84.1078L559.346 137.788H598.703V84.1078Z" fill="white"/>
<path d="M100.715 189.799H0L7.07843 138.814L111.245 0H154.1V137.793H188.607V189.803H154.1V238.215H100.715V189.803V189.799ZM100.715 84.1078L61.3578 137.788H100.715V84.1078Z" fill="white"/>
<path d="M740.533 42.8053H734.523V103.175H740.533V42.8053Z" fill="#BDBDD8"/>
<path d="M768.963 37.3183H705.223V42.8053H768.963V37.3183Z" fill="#1A272E"/>
<path d="M706.655 35.7941H705.269C704.813 35.7941 704.443 36.1651 704.443 36.6228V43.5051C704.443 43.9627 704.813 44.3337 705.269 44.3337H706.655C707.11 44.3337 707.48 43.9627 707.48 43.5051V36.6228C707.48 36.1651 707.11 35.7941 706.655 35.7941Z" fill="#1A272E"/>
<path d="M769.655 35.7941H768.269C767.813 35.7941 767.443 36.1651 767.443 36.6228V43.5051C767.443 43.9627 767.813 44.3337 768.269 44.3337H769.655C770.11 44.3337 770.48 43.9627 770.48 43.5051V36.6228C770.48 36.1651 770.11 35.7941 769.655 35.7941Z" fill="#1A272E"/>
<path d="M744.505 36.3566H730.34V43.7713H744.505V36.3566Z" fill="#BDBDD8"/>
<path opacity="0.33" d="M734.523 43.7713H740.533L734.523 47.1287V43.7713Z" fill="#1A272E"/>
<path opacity="0.8" d="M733.597 94.4378H741.462C746.394 94.4378 750.397 98.4564 750.397 103.407V226.795H724.662V103.407C724.662 98.4564 728.665 94.4378 733.597 94.4378Z" fill="#CF3F44"/>
<path d="M755.131 90.6166H737.424V231.775H755.131V90.6166Z" fill="#CF3F44"/>
<path d="M759.725 237.327H715.826C715.826 231.196 720.779 226.224 726.886 226.224H748.661C754.768 226.224 759.721 231.196 759.721 237.327H759.725Z" fill="#1A272E"/>
<path d="M762.077 236.691H713.349C712.905 236.691 712.545 237.053 712.545 237.498V238.984C712.545 239.43 712.905 239.791 713.349 239.791H762.077C762.521 239.791 762.881 239.43 762.881 238.984V237.498C762.881 237.053 762.521 236.691 762.077 236.691Z" fill="#1A272E"/>
<path d="M743.591 90.6166H731.466C730.327 90.6166 729.404 91.5431 729.404 92.686V93.8453C729.404 94.9882 730.327 95.9147 731.466 95.9147H743.591C744.73 95.9147 745.653 94.9882 745.653 93.8453V92.686C745.653 91.5431 744.73 90.6166 743.591 90.6166Z" fill="#1A272E"/>
<path opacity="0.32" d="M730.837 167.722C729.426 167.722 728.279 166.571 728.279 165.154V147.689C728.279 146.272 729.426 145.121 730.837 145.121C732.248 145.121 733.395 146.272 733.395 147.689V165.154C733.395 166.571 732.248 167.722 730.837 167.722Z" fill="white"/>
<path opacity="0.32" d="M730.837 176.111C729.426 176.111 728.279 174.961 728.279 173.544V171.758C728.279 170.341 729.426 169.19 730.837 169.19C732.248 169.19 733.395 170.341 733.395 171.758V173.544C733.395 174.961 732.248 176.111 730.837 176.111Z" fill="white"/>
<path d="M759.086 126.33C761.016 114.393 752.941 103.145 741.05 101.208C729.159 99.2702 717.954 107.376 716.024 119.313C714.094 131.25 722.169 142.497 734.06 144.435C745.951 146.372 757.156 138.266 759.086 126.33Z" fill="#1A272E"/>
<path d="M744.847 140.546C754.606 136.488 759.241 125.257 755.198 115.46C751.156 105.663 739.967 101.011 730.208 105.069C720.449 109.127 715.814 120.358 719.857 130.155C723.899 139.952 735.088 144.604 744.847 140.546Z" fill="white"/>
<path d="M737.71 125.831C739.373 125.831 740.721 124.478 740.721 122.809C740.721 121.139 739.373 119.786 737.71 119.786C736.047 119.786 734.699 121.139 734.699 122.809C734.699 124.478 736.047 125.831 737.71 125.831Z" fill="#1A272E"/>
<path d="M738.254 106.142H737.172V111.337H738.254V106.142Z" fill="#1A272E"/>
<path d="M738.254 134.542H737.172V139.737H738.254V134.542Z" fill="#1A272E"/>
<path d="M754.447 123.483V122.396H749.272V123.483H754.447Z" fill="#1A272E"/>
<path d="M726.15 123.483V122.396H720.975V123.483H726.15Z" fill="#1A272E"/>
<path d="M749.927 111.448L749.162 110.68L745.503 114.353L746.268 115.121L749.927 111.448Z" fill="#1A272E"/>
<path d="M729.921 131.532L729.156 130.764L725.497 134.438L726.262 135.206L729.921 131.532Z" fill="#1A272E"/>
<path d="M749.161 135.201L749.926 134.433L746.266 130.76L745.501 131.528L749.161 135.201Z" fill="#1A272E"/>
<path d="M729.155 115.117L729.92 114.349L726.261 110.675L725.495 111.443L729.155 115.117Z" fill="#1A272E"/>
<path d="M744.693 115.931L738.167 121.083L737.709 122.942L739.561 122.482L744.693 115.931Z" fill="#F1BF46"/>
<path d="M352.142 214.533H343.832V222.875H352.142V214.533Z" fill="#1A272E"/>
<path d="M607.42 227.186C590.552 227.186 574.616 222.493 558.705 212.841C544.629 204.306 532.316 193.186 519.275 181.414C494.092 158.676 468.054 135.165 428.783 132.374C407.552 130.863 390.183 136.217 377.155 148.29C351.566 171.998 350.881 214.138 350.877 214.559L345.107 214.507C345.107 214.048 345.24 203.138 348.726 188.991C351.963 175.854 358.837 157.392 373.22 144.057C387.467 130.842 406.298 124.968 429.198 126.595C470.445 129.528 497.236 153.717 523.142 177.107C548.368 199.884 572.19 221.394 607.429 221.394C648.381 221.394 666.781 212.979 681.562 206.212C692.917 201.017 702.724 196.531 718.682 197.784L718.233 203.559C703.755 202.421 695.022 206.418 683.957 211.485C668.667 218.479 649.634 227.186 607.429 227.186H607.42Z" fill="#CF3F44"/>
<path d="M724.562 194.534H712.334V206.809H724.562V194.534Z" fill="#1A272E"/>
</g>
<defs>
<clipPath id="clip0_65_1099">
<rect width="771" height="269.384" fill="white"/>
</clipPath>
</defs>
</svg>
