<svg width="891" height="535" viewBox="0 0 891 535" fill="none" xmlns="http://www.w3.org/2000/svg">
<g clip-path="url(#clip0_8_285)">
<path d="M454.766 1.42667H516.78C516.78 1.42667 518.206 2.85334 518.562 3.56667C519.631 6.42001 520.7 9.27334 521.77 12.1267C524.977 21.0433 528.541 30.6733 531.036 39.9467C532.462 45.6533 533.887 51.36 535.313 56.71C536.382 60.6333 537.095 64.2 538.164 68.1233C541.015 79.8933 546.005 89.1667 553.846 97.37C555.984 99.51 558.122 101.65 560.261 104.147C563.825 107.713 567.389 111.28 570.596 114.847C580.219 126.617 585.565 140.883 587.347 159.073V162.997C588.416 172.27 589.486 181.9 591.268 191.173C595.188 212.217 598.039 233.973 599.465 257.87C599.821 264.29 600.89 272.493 603.742 280.34C607.662 290.327 614.434 296.747 623.7 298.53C626.195 298.887 628.333 299.243 630.828 299.243C638.312 299.243 645.44 296.747 652.212 291.397C661.835 284.263 668.606 273.563 673.596 259.297C677.873 247.17 678.229 234.33 678.586 223.273C678.586 214.713 679.298 205.797 680.724 196.88C683.932 177.62 692.842 161.57 707.098 149.8C712.444 145.163 718.502 141.24 724.205 137.317L728.125 134.463C752.36 117.7 749.153 88.81 746.658 77.3967C745.945 74.1867 744.163 71.69 742.381 69.1933C737.392 62.7733 730.264 60.99 723.848 60.2767C718.859 59.5633 713.513 59.5633 709.949 59.5633C707.81 59.5633 706.028 59.5633 703.89 59.5633C701.752 59.5633 699.97 59.5633 697.831 59.5633H694.624C688.921 59.5633 684.288 58.85 679.655 57.78C660.766 52.7867 644.371 42.0867 629.402 24.9667C624.769 19.6167 620.849 12.4833 617.285 3.56667C616.572 2.14001 616.572 1.42667 617.285 1.07001H646.51C646.51 1.07001 648.292 2.85334 649.004 4.28001C653.638 13.1967 658.627 19.9733 664.33 24.9667C675.734 34.5967 689.278 39.2333 706.385 39.2333C709.236 39.2333 712.444 39.2333 715.651 38.8767C724.561 38.1633 733.828 37.45 743.094 36.38C749.153 35.6667 755.212 34.9533 761.27 33.5267C766.616 32.1 769.824 28.89 771.962 23.54C773.744 18.9033 774.814 13.5533 775.883 6.77667V5.70667C775.883 5.70667 776.239 2.49667 777.308 1.42667H804.751C804.751 1.42667 806.533 3.21001 807.246 4.28001C811.523 10.3433 816.156 14.2667 821.502 16.7633C826.492 18.9033 831.838 20.33 836.827 21.7567C836.827 21.7567 840.035 22.8267 841.817 23.1833C848.232 24.9667 855.004 26.75 861.419 29.6033C870.685 33.8833 876.388 38.52 879.952 45.2967C886.367 56.71 888.505 69.55 886.723 82.7467C883.872 102.72 874.606 116.987 858.568 125.903C845.024 133.393 831.125 137.673 820.076 140.883C817.938 141.597 815.8 141.953 814.018 142.667C806.89 144.45 799.762 146.59 792.99 149.8C780.872 155.15 773.388 164.78 770.893 178.333C769.468 184.753 769.468 191.53 769.468 197.95V201.517C769.468 207.58 770.537 214 772.319 221.49C777.665 241.107 789.426 257.157 808.315 269.997C818.651 276.773 829.343 282.123 840.391 287.473C842.886 288.9 845.737 289.97 848.232 291.397C858.211 296.39 868.547 302.097 878.526 309.23C883.159 312.44 887.792 316.363 890.644 321.713V388.41C890.644 388.41 889.574 387.697 889.218 387.34C889.218 387.34 888.505 386.627 888.149 386.627C880.308 379.493 873.893 373.787 868.19 368.437C857.142 357.737 847.519 345.61 836.114 331.343C826.135 318.86 817.938 309.587 809.384 301.383L803.326 295.677C795.841 288.9 788.357 281.41 781.229 273.92C774.101 266.073 767.686 256.8 762.34 245.743C755.212 231.477 752.004 215.783 749.509 202.23V200.447C748.084 193.313 747.014 186.18 744.163 179.403C741.668 173.34 737.035 169.773 731.333 169.773C730.264 169.773 728.838 169.773 727.769 170.13C724.918 170.843 722.066 171.913 718.859 173.697C709.236 179.047 704.959 188.32 702.108 196.88C698.544 206.867 697.831 217.21 696.762 227.553V232.19C694.624 251.45 689.278 269.64 680.011 285.69C672.883 297.817 663.973 307.447 653.638 313.867C644.371 319.573 634.036 322.427 622.274 322.427C617.641 322.427 612.652 322.07 607.306 321C596.614 319.217 589.486 313.153 586.278 302.81C584.496 296.747 584.14 290.327 583.783 284.977C583.783 279.627 583.427 274.277 583.07 268.927C583.07 262.863 583.07 256.8 582.358 250.737C581.645 237.897 579.15 225.413 574.873 213.287C570.596 201.16 564.894 188.677 557.053 173.34C549.569 159.073 540.659 149.087 529.254 143.38C523.552 140.527 518.562 138.387 513.929 138.387C507.87 138.387 502.88 141.953 497.534 150.513C488.981 163.71 480.071 175.123 470.804 185.823C462.251 195.453 452.628 204.727 438.372 216.14C426.254 225.77 418.057 235.4 412.355 246.457C410.573 249.667 409.147 253.233 407.722 256.443C405.583 260.723 403.445 265.36 400.95 269.997C392.04 286.403 380.635 296.747 366.023 301.74C361.39 303.167 356.756 304.593 352.123 306.02C345.708 307.803 339.293 309.943 332.878 312.44C312.206 320.287 299.02 333.483 292.604 352.03C288.328 364.513 287.258 375.213 289.04 385.557C290.822 394.83 294.743 403.747 301.514 411.593C314.701 427.643 325.75 443.337 335.372 459.743C338.936 465.45 341.788 470.087 344.995 474.01C351.767 481.857 358.895 485.78 367.448 485.78H368.518C380.635 485.423 391.684 480.073 403.088 469.017C411.998 460.813 417.344 449.757 422.69 439.057V438.343C430.888 422.65 440.51 409.453 452.272 399.11C463.676 388.767 475.081 378.423 486.486 368.08L505.732 350.603C518.918 338.833 532.105 333.127 546.361 333.127C547.43 333.127 548.5 333.127 549.569 333.127C559.548 333.84 566.32 336.693 571.666 343.113C575.23 347.393 578.081 352.03 580.932 357.737C582.358 360.59 583.783 363.8 585.209 366.653C589.842 376.997 595.188 387.34 601.247 396.97C608.018 407.67 615.146 414.803 623.344 419.797C630.472 424.077 637.6 426.217 644.371 426.217C649.004 426.217 653.281 425.147 657.914 423.363C662.548 421.58 666.468 419.44 670.032 417.3C672.527 415.873 674.665 414.447 677.16 413.02C682.862 409.453 688.921 405.53 695.336 402.32C704.603 397.683 713.869 395.543 723.492 395.543C727.412 395.543 731.689 395.9 735.966 396.97C754.142 400.537 766.973 414.447 770.18 434.063C771.606 441.197 771.606 449.4 770.18 459.03C768.398 475.437 758.063 487.207 743.094 490.773C734.54 492.557 725.987 492.913 717.433 493.27C713.513 493.27 709.592 493.27 706.028 493.983C703.89 493.983 701.752 493.983 699.613 493.983C696.406 493.983 692.842 493.983 689.278 494.697C673.596 496.837 661.835 503.97 653.638 515.74C650.786 520.02 648.292 524.657 645.797 530.72C645.084 532.147 644.371 533.217 643.302 533.93H605.88C605.88 533.93 605.167 532.86 605.167 532.503C605.167 531.077 605.167 529.65 604.811 528.223C604.811 526.797 604.811 525.37 604.811 523.587C604.811 512.887 605.167 500.047 607.662 487.563C609.088 479.717 607.662 472.227 603.385 464.737C599.465 457.247 595.544 449.043 591.624 438.7C590.198 435.133 588.773 431.21 587.347 427.643C583.427 417.3 579.15 406.6 574.16 396.613C569.171 386.627 564.538 379.493 559.192 373.787C552.776 367.01 545.292 363.443 536.738 363.443C536.382 363.443 535.669 363.443 535.313 363.443C527.828 363.8 520.7 366.297 513.572 370.933C503.593 377.353 494.327 384.843 485.06 391.977L479.002 396.613C470.092 403.39 461.894 411.593 454.41 420.51C445.856 430.853 440.51 443.337 435.877 455.107C428.393 473.653 418.057 490.417 403.445 506.823C397.742 513.243 391.684 521.09 389.189 531.79C389.189 533.217 388.476 533.93 387.407 534.643H344.639C344.639 534.643 343.213 532.86 342.857 532.147C339.649 523.23 333.947 515.74 325.393 509.32L321.829 506.467C314.345 500.76 306.504 494.697 299.732 487.92C289.397 477.577 280.13 466.163 271.22 452.61C263.38 440.483 254.47 431.21 244.134 423.363C239.501 419.797 234.868 415.517 229.522 409.81C220.968 400.893 212.771 390.907 204.93 381.277C202.435 378.067 199.94 375.213 197.446 372.003C190.318 363.087 184.972 355.24 181.051 347.037C171.428 327.063 169.29 305.663 168.577 287.117C167.864 274.633 169.29 261.437 173.21 245.387C175.705 235.4 177.844 224.343 177.487 212.93C177.131 195.81 172.498 180.117 164.3 166.207C156.103 152.653 143.629 145.877 127.591 145.877C126.878 145.877 126.166 145.877 125.096 145.877C114.761 146.233 104.069 149.443 93.7332 154.793C85.1796 159.073 77.6952 164.78 68.7852 171.557C50.9652 185.467 30.6504 194.383 7.128 198.663C7.128 198.663 6.4152 198.663 6.0588 198.663C5.346 198.663 4.6332 198.663 4.2768 198.663C3.9204 198.663 3.564 198.663 3.2076 198.663V161.57C3.2076 161.57 4.2768 160.857 4.6332 160.857H2.8512C4.9896 160.857 6.7716 160.857 8.1972 160.5C9.6228 160.5 11.0484 160.5 12.1176 160.143C19.9584 159.787 27.4428 158.717 34.2144 156.577C43.1244 154.08 51.678 149.8 59.8752 145.877C62.7264 144.45 65.2212 143.38 67.716 141.953C86.6052 133.037 104.425 128.757 122.245 128.757C127.235 128.757 132.224 128.757 137.214 129.827C152.896 131.967 165.013 140.17 173.21 155.15C180.338 167.277 185.328 181.9 189.248 200.803C191.743 212.217 192.1 222.56 190.674 232.19C189.605 238.967 188.179 245.387 186.754 251.807C186.041 254.303 185.684 256.443 184.972 258.94C181.408 274.277 180.695 288.187 182.477 302.097C186.397 330.63 199.94 352.387 223.106 365.94C229.165 369.507 234.868 371.29 239.857 371.29C247.698 371.29 254.47 367.01 260.885 358.807C265.162 353.1 269.082 346.68 272.646 340.617C274.072 338.477 275.497 335.98 276.566 333.84C286.189 318.147 299.732 306.02 316.483 297.817C323.255 294.607 330.383 291.753 337.511 288.9C341.788 287.117 345.708 285.69 349.985 283.907C369.587 275.347 380.279 261.437 383.486 240.75C384.912 231.12 385.625 221.133 385.268 211.147C385.268 207.58 385.268 203.657 386.694 200.09C388.476 192.957 392.753 189.033 399.524 187.963C402.376 187.25 405.583 187.25 408.434 187.25H412.711C424.472 187.25 435.521 181.9 443.362 172.627C451.915 162.283 455.836 148.73 453.697 135.177C451.202 118.77 445.144 103.79 439.441 90.5933C438.372 88.0967 437.303 85.6 436.234 83.1033C432.67 74.5433 428.749 65.9833 426.254 56.71C422.334 43.5133 423.403 33.17 429.818 23.8967C433.382 18.5467 438.016 14.2667 442.292 10.3433C443.362 9.27334 444.787 8.20334 445.856 7.13334C448.351 4.63667 450.846 2.14001 454.054 1.07001M454.054 -0.356659C448.708 1.07001 445.5 6.06334 441.58 9.27334C436.946 13.1967 432.313 17.4767 428.749 22.8267C421.621 33.5267 421.621 44.94 425.185 56.71C428.749 68.48 433.739 79.18 438.372 90.5933C444.074 104.86 450.133 119.483 452.272 135.177C456.192 161.57 437.303 185.467 412.711 185.467H408.434C405.227 185.467 402.376 185.467 399.524 186.18C392.04 187.607 387.763 191.887 385.625 199.377C384.556 202.943 384.199 206.867 384.199 210.79C384.199 220.777 383.843 230.407 382.417 240.393C379.21 261.437 367.805 274.633 349.628 282.48C338.58 287.117 327.175 291.04 316.127 296.39C299.376 304.593 285.833 316.363 275.497 332.77C270.508 340.973 265.518 349.89 259.816 357.737C253.757 365.94 247.342 369.863 240.214 369.863C235.224 369.863 229.878 368.08 224.176 364.87C201.01 351.317 187.823 330.273 184.259 302.097C182.477 287.473 183.546 273.563 186.754 259.297C188.892 250.38 191.03 241.463 192.456 232.547C193.882 221.847 193.169 211.147 191.03 200.803C187.823 184.753 183.19 169.06 174.992 154.793C166.439 140.17 154.321 131.253 137.927 129.113C132.937 128.4 127.591 128.043 122.602 128.043C103.712 128.043 85.1796 133.037 67.3596 141.24C56.3112 146.233 45.6192 152.297 33.858 155.507C26.73 157.647 19.2456 158.717 12.1176 159.073C8.91 159.073 6.0588 159.787 2.8512 159.787C2.8512 159.787 0.7128 160.5 0 161.213V199.733C0 199.733 1.782 200.803 2.4948 200.803C3.564 200.803 4.6332 200.447 5.7024 200.09C28.512 195.81 49.1832 187.25 68.0724 172.627C75.9132 166.563 84.1104 160.5 93.0204 155.863C102.643 150.87 112.979 147.303 123.671 146.947C124.384 146.947 125.096 146.947 126.166 146.947C140.778 146.947 152.896 152.653 161.449 166.563C170.003 180.473 173.923 195.81 174.636 212.573C174.992 223.63 172.854 233.973 170.359 244.317C167.152 258.227 165.013 272.137 165.726 286.403C166.795 307.447 169.29 328.133 178.556 347.037C182.833 356.31 188.892 364.513 194.951 372.36C205.643 385.2 215.622 398.397 227.027 410.167C231.66 415.16 236.65 419.797 241.996 423.72C252.688 431.567 261.241 441.197 268.726 452.61C277.279 465.45 286.546 477.22 297.594 488.277C305.435 496.123 314.345 502.9 323.255 509.677C330.739 515.383 336.798 522.517 340.362 531.79C341.075 533.217 342.144 534.287 343.213 535.357H387.05C387.05 535.357 389.189 533.217 389.545 531.433C392.04 521.803 397.386 513.957 403.445 507.18C416.988 491.843 428.393 474.723 436.234 455.107C441.223 442.98 446.569 430.853 454.766 420.867C461.894 411.95 470.092 404.103 479.002 397.327C490.406 388.41 501.455 379.493 513.572 371.647C519.988 367.367 527.116 364.87 534.6 364.513C534.956 364.513 535.669 364.513 536.026 364.513C544.223 364.513 551.707 368.08 557.41 374.5C563.468 380.92 568.102 388.767 572.378 396.97C579.15 410.523 584.14 424.79 589.842 439.057C593.406 447.973 597.326 456.89 601.96 465.45C605.88 472.227 607.306 479.36 605.88 487.563C603.742 499.69 603.385 511.817 603.029 523.943C603.029 527.153 603.742 530.007 603.742 532.86C603.742 534.287 604.454 535 605.167 535.713H643.658C643.658 535.713 646.153 533.573 646.866 531.79C649.004 526.797 651.499 521.447 654.707 517.167C663.26 504.683 675.378 498.62 689.278 496.48C694.624 495.767 700.326 496.48 706.028 495.767C718.502 494.697 730.976 495.41 743.45 492.557C758.776 488.99 769.824 477.22 771.606 459.743C772.675 451.183 773.032 442.623 771.606 434.063C768.042 414.09 755.212 399.467 736.322 395.543C732.046 394.473 727.769 394.117 723.848 394.117C713.869 394.117 704.603 396.613 695.336 401.25C686.426 405.53 678.586 411.237 670.032 416.23C666.112 418.727 662.191 420.51 657.914 422.293C653.638 424.077 649.361 425.147 645.084 425.147C637.956 425.147 631.541 423.007 624.769 418.727C615.859 413.377 609.088 405.53 603.029 396.613C595.188 384.13 589.129 370.577 582.714 357.38C580.219 352.03 577.012 347.037 573.091 342.4C566.676 334.91 558.835 332.413 549.925 332.057C548.856 332.057 547.787 332.057 546.361 332.057C530.323 332.057 516.78 339.19 504.662 349.89C486.842 365.94 469.022 381.99 451.202 398.04C439.085 409.097 429.462 422.65 421.978 437.63C416.632 448.687 410.929 459.743 402.376 467.947C392.753 477.22 382.061 483.997 368.874 484.353H367.805C359.251 484.353 352.123 480.073 346.421 473.297C342.857 469.017 339.649 464.38 336.798 459.387C326.819 442.267 315.058 426.217 302.584 411.237C296.525 403.747 292.248 395.543 290.466 385.913C288.684 374.5 290.466 363.8 294.03 353.1C301.158 332.77 315.414 321.357 333.59 314.223C344.639 309.943 355.687 307.447 366.736 303.523C382.774 297.817 394.178 286.403 402.376 271.067C406.652 263.577 409.86 255.373 413.78 247.527C419.839 235.4 429.106 226.127 439.441 217.923C450.846 208.65 462.251 198.663 471.874 187.25C481.496 176.193 490.406 164.067 498.604 151.583C503.95 143.38 508.583 140.17 513.929 140.17C518.206 140.17 522.839 141.953 528.541 145.163C541.015 151.583 549.212 161.927 555.628 174.767C562.399 187.607 568.458 200.447 573.448 214.357C577.724 226.483 580.219 238.61 580.932 251.45C581.645 262.863 581.645 274.277 582.358 285.69C582.358 291.753 583.427 297.817 585.209 303.88C588.416 315.293 596.614 321.713 607.306 323.14C612.295 323.853 617.641 324.567 622.631 324.567C633.679 324.567 644.728 322.07 654.707 316.007C666.112 308.873 674.665 299.243 681.793 287.473C691.416 271.067 696.762 252.877 698.544 233.617C699.613 221.847 699.97 210.077 704.246 198.663C707.454 189.39 711.731 181.187 720.284 176.193C723.136 174.767 725.63 173.34 728.838 172.627C729.907 172.627 730.976 172.627 732.046 172.627C737.392 172.627 741.312 175.48 743.45 181.187C746.302 188.32 747.371 196.167 748.796 203.657C751.291 218.993 754.499 233.973 761.627 247.527C766.973 257.87 773.032 267.5 780.872 275.703C789.782 285.69 799.762 294.25 809.384 303.167C819.007 312.083 827.561 322.427 835.758 332.77C845.737 345.967 856.429 358.807 867.834 370.22C874.249 376.64 881.021 382.703 887.792 388.767C888.862 389.48 889.931 391.263 891.356 391.263C891.713 391.263 892.069 391.263 892.782 390.907V322.783C889.574 317.077 884.941 313.153 879.952 309.587C870.329 302.453 859.993 296.747 849.658 291.397C836.114 284.62 822.571 278.557 810.097 269.997C792.99 258.583 780.16 243.603 774.457 222.56C772.675 216.14 771.606 209.72 771.606 202.943C771.606 195.453 771.606 187.607 773.032 180.117C775.526 166.563 782.654 157.647 794.416 152.297C803.326 148.373 812.592 146.233 821.502 143.38C834.689 139.457 847.876 134.82 860.35 128.043C877.457 118.77 886.367 103.79 889.218 84.1733C891 70.62 889.218 57.78 882.446 45.6533C878.17 37.45 871.042 32.8133 863.201 29.2467C855.36 25.68 846.806 23.8967 838.609 21.4C833.263 19.9733 828.274 18.5467 822.928 16.4067C817.225 13.91 812.948 9.63001 809.384 4.63667C808.315 3.21001 807.246 1.78334 806.177 1.07001H777.665C775.883 2.85334 775.883 5.35001 775.526 7.84667C774.814 13.5533 773.744 18.9033 771.962 24.2533C770.18 29.2467 766.973 32.1 762.34 33.17C756.281 34.9533 750.578 35.31 744.52 36.0233C735.253 37.0933 725.987 37.8067 717.077 38.52C714.226 38.52 711.018 38.8767 708.167 38.8767C693.198 38.8767 679.298 35.6667 666.824 24.9667C660.409 19.26 655.776 12.4833 651.856 4.63667C651.143 2.85334 650.074 1.42667 648.648 0.713341H618.71C618.71 0.713341 617.641 3.56667 618.354 4.99334C621.205 12.84 625.126 20.6867 630.472 27.1067C644.728 43.1567 661.122 54.9267 681.437 60.2767C686.426 61.7033 691.416 62.06 696.762 62.06C697.831 62.06 698.9 62.06 699.97 62.06C703.89 62.06 708.167 62.06 712.087 62.06C716.72 62.06 721.354 62.06 725.987 62.7733C732.758 63.8433 739.174 65.27 743.807 71.3333C745.589 73.4733 747.014 75.97 747.727 78.8233C752.004 98.0833 749.153 120.91 729.907 134.463C722.779 139.457 715.651 144.093 708.88 149.8C693.911 161.927 685.357 178.333 681.793 197.95C680.368 206.867 680.011 215.783 679.655 224.7C679.655 236.827 678.586 248.953 674.665 260.367C670.388 272.85 664.33 283.907 653.994 291.753C647.579 296.747 640.807 299.243 633.323 299.243C631.184 299.243 628.69 299.243 626.551 298.53C617.285 296.39 611.226 289.97 607.662 281.053C604.811 273.92 603.742 266.43 603.385 258.94C601.96 236.47 599.465 214.357 595.188 191.887C593.406 181.187 592.337 170.487 591.624 159.787C590.198 143.023 585.209 127.687 574.517 114.847C569.171 108.783 563.468 103.077 557.766 97.37C550.282 89.1667 545.292 79.8933 542.441 68.8367C539.946 59.5633 538.164 49.9333 535.669 40.66C532.105 28.1767 527.472 16.4067 523.195 3.92334C522.482 2.49667 521.77 1.42667 520.344 0.713341H457.618L454.054 -0.356659Z" fill="#BB383D"/>
<path d="M-8.25034 323.854C-8.25034 323.854 -7.87537 323.854 -7.5004 323.854C1.49879 324.925 8.24818 325.995 14.6226 327.065C40.4953 331.704 61.8684 344.191 77.6169 363.457C82.1165 368.809 85.8662 374.161 88.8659 379.513C98.2401 396.638 101.24 414.834 102.74 432.317V433.387C103.865 444.447 104.989 456.221 108.364 467.281C112.114 480.126 117.738 489.402 126.363 495.824C132.362 500.462 138.736 504.387 145.111 508.312C147.361 509.739 149.985 511.166 152.235 512.593C159.735 517.231 166.109 523.296 171.733 530.432C172.858 531.859 173.233 532.573 172.858 533.286H137.612C135.362 532.573 133.112 532.216 131.237 531.859C129.737 531.859 128.237 531.146 126.738 530.789C124.113 530.075 121.488 529.719 118.863 529.719C113.989 529.719 109.489 530.789 104.989 533.286C66.7429 533.286 28.4964 533.286 -9.37524 533.286C-10.1252 533.286 -10.1252 533.286 -10.5001 533.286V532.216C-10.5001 527.221 -10.5001 521.869 -10.5001 516.874V510.809C-10.5001 510.809 -9.37524 510.095 -8.25034 510.095C-7.5004 510.095 -7.12544 510.095 -6.37551 510.095C-3.37578 510.452 -0.376045 510.452 2.24872 510.452H13.1227C19.8721 510.452 26.9965 510.452 34.1209 509.739C43.495 509.025 54.369 507.598 64.4931 504.387C73.1173 501.533 78.7418 495.467 80.9916 486.191C83.2414 476.201 83.9914 466.211 84.3663 454.794C84.7413 444.447 85.4912 434.457 84.3663 424.111C83.2414 406.985 79.4918 393.784 73.1173 382.367C63.7432 365.955 50.9943 354.894 34.1209 349.186C24.7467 345.975 15.7475 345.618 8.99811 345.618C4.87348 345.618 1.12382 345.618 -3.00081 345.618H-6.75047C-6.75047 345.618 -7.87537 345.618 -8.25034 345.618C-9.37524 345.618 -9.7502 345.618 -10.5001 344.905V323.141C-10.5001 323.141 -9.37524 322.427 -8.6253 322.427M-8.6253 321C-8.6253 321 -10.8751 321.357 -12 322.427V345.261C-12 345.261 -9.7502 346.688 -8.25034 346.688C-7.12544 346.688 -6.37551 346.688 -5.25061 346.688C-0.376045 346.688 4.12355 346.332 8.99811 346.332C17.2474 346.332 25.4966 347.045 33.7459 349.543C50.9943 355.251 63.3682 366.312 71.9924 382.01C79.1168 394.854 82.1165 408.769 83.2414 423.397C83.9914 433.744 83.2414 443.734 83.2414 454.08C82.8665 464.427 82.1165 474.774 79.8667 485.121C77.6169 493.683 72.7424 499.392 64.4931 502.246C54.744 505.457 44.6199 506.528 34.4958 507.598C27.3715 508.312 20.6221 508.312 13.4977 508.312C9.74804 508.312 6.37335 508.312 2.62368 508.312C-0.376046 508.312 -3.00081 508.312 -6.00054 507.955C-6.75047 507.955 -7.5004 507.955 -7.87537 507.955C-9.37524 507.955 -10.5001 507.955 -11.625 509.739C-11.625 516.874 -11.625 524.367 -11.625 531.502C-11.625 533.643 -11.2501 534 -9.00027 534C29.2463 534 67.4929 534 105.739 534C110.239 531.503 114.739 530.432 119.238 530.432C121.863 530.432 124.488 530.432 126.738 531.502C130.487 532.573 134.237 532.93 137.987 534H174.358C175.858 531.859 174.358 530.432 173.608 529.005C167.984 521.869 161.234 515.447 153.735 510.809C145.111 505.1 136.112 500.106 127.862 493.683C118.863 486.548 113.614 476.915 110.614 465.854C107.239 454.437 106.114 443.02 104.989 431.246C103.115 412.693 100.115 394.497 90.7408 377.729C87.3661 372.02 83.6164 366.312 79.4918 361.317C62.6183 340.98 40.8702 329.206 15.3725 324.568C7.87321 323.141 0.373887 322.07 -7.12544 321.357C-7.12544 321.357 -7.87537 321.357 -8.25034 321.357L-8.6253 321Z" fill="#BB383D"/>
<path d="M190.674 1.42667H203.861C203.861 1.42667 205.286 3.21 205.643 5.35C207.781 15.3367 211.702 25.68 218.473 38.1633C221.681 43.87 224.532 49.5767 227.74 54.9267C232.729 63.8433 237.719 73.1167 242.708 82.0333C248.411 92.7333 254.47 103.79 263.736 112.35C275.141 122.693 286.189 127.687 297.594 127.687C298.663 127.687 299.732 127.687 300.802 127.687C311.494 126.973 320.047 122.337 326.462 113.42C334.66 102.363 337.511 89.1667 339.293 77.7533C340.718 68.8367 341.075 59.5633 341.788 50.6467V46.01C342.857 32.4567 344.995 19.26 346.777 6.06333V4.28C346.777 4.28 347.846 2.49667 348.559 1.42667H379.566C378.14 8.56 376.002 15.3367 372.794 22.1133C365.31 37.45 359.964 54.2133 356.4 73.4733L355.687 76.3267C353.549 88.81 351.054 101.293 346.777 113.42C344.639 120.197 341.788 127.33 337.154 132.68C329.314 141.24 319.691 145.52 307.217 145.52C304.366 145.52 301.514 145.52 298.307 144.807C277.279 141.597 259.459 130.183 243.778 109.14C236.65 99.8667 230.947 89.5233 225.245 79.18L224.532 77.7533C222.394 74.1867 220.255 70.62 218.117 67.0533C211.345 55.2833 204.217 43.5133 198.871 30.3167C194.238 19.26 191.743 10.3433 190.674 1.42667ZM189.248 0C190.318 10.7 193.882 21.0433 197.802 31.03C204.93 47.7933 214.553 62.7733 223.463 78.4667C229.522 89.1667 235.58 99.8667 243.065 109.853C257.321 129.113 275.497 142.667 298.663 146.233C301.871 146.59 304.722 146.947 307.93 146.947C319.334 146.947 330.026 143.38 338.936 133.75C343.926 128.043 346.421 121.267 348.916 114.133C353.192 101.293 355.687 87.3833 358.182 74.1867C361.39 56.3533 366.736 39.59 374.576 23.1833C378.14 16.05 380.635 8.56 382.061 0.713333H348.916C348.916 0.713333 347.134 2.85333 346.777 4.63667C344.639 18.5467 342.5 32.8133 341.788 47.08C341.075 57.78 340.718 68.1233 338.936 78.4667C337.154 90.95 333.947 103.077 326.462 113.42C320.047 121.98 311.494 126.26 301.514 126.973C300.445 126.973 299.376 126.973 298.307 126.973C285.476 126.973 274.784 120.91 265.162 111.993C256.252 103.79 249.836 92.7333 244.134 82.0333C236.293 67.0533 228.096 52.7867 219.899 37.8067C214.553 27.4633 209.563 17.12 207.425 5.70667C207.068 3.56667 206.356 1.42667 204.574 0.713333H189.605L189.248 0Z" fill="#BB383D"/>
<path d="M57.024 1.42667H98.3664C96.9408 6.06333 95.8716 10.7 93.7332 14.98C86.2488 31.3867 74.844 44.94 59.8752 55.64C50.6088 62.06 40.6296 65.6267 30.294 65.6267C27.4428 65.6267 24.2352 65.6267 21.384 64.9133L5.346 62.06L1.4256 61.3467V13.91C1.4256 13.91 3.564 12.84 4.9896 12.84C6.0588 12.84 6.7716 12.84 7.8408 12.84C8.5536 12.84 9.2664 12.84 9.9792 12.84H13.5432C17.4636 13.1967 21.7404 13.5533 26.0172 13.5533C28.512 13.5533 30.294 13.5533 32.4324 13.5533C41.3424 12.84 48.4704 9.63 53.8164 3.92333C54.8856 2.85333 55.9548 2.14 57.024 1.42667ZM57.024 0C57.024 0 54.1728 1.78333 53.1036 2.85333C47.4012 8.91667 40.2732 11.4133 32.7888 12.1267C30.6504 12.1267 28.512 12.1267 26.3736 12.1267C21.0276 12.1267 15.6816 11.77 10.3356 11.4133C8.91 11.4133 7.128 11.0567 5.346 11.0567C3.2076 11.4133 1.782 11.77 0 13.1967V62.7733C7.128 63.8433 14.256 65.27 21.384 66.34C24.5916 66.6967 27.4428 67.0533 30.6504 67.0533C41.3424 67.0533 51.678 63.4867 61.3008 57.0667C76.2696 46.7233 88.0308 33.17 95.5152 15.6933C97.6536 10.7 99.0792 5.35 100.505 0H56.6676L57.024 0Z" fill="#BB383D"/>
<path d="M889.574 443.337V489.347C889.574 489.347 888.862 490.417 888.862 491.13C888.505 492.2 887.792 493.27 887.436 493.627C882.803 497.55 877.457 502.187 871.398 505.753C863.557 510.39 854.647 513.6 846.45 516.453C843.955 517.523 841.104 518.237 838.609 519.307C831.481 521.803 825.422 524.3 820.433 529.293C818.651 531.077 816.869 532.503 814.73 533.573H785.862C786.575 520.02 794.416 509.32 806.533 504.683C811.166 502.9 815.8 501.473 820.433 500.047C825.422 498.263 830.412 496.837 835.402 495.053C847.163 490.773 857.498 484.353 865.339 476.15C870.329 470.8 874.606 465.093 878.526 459.03L881.021 455.82C881.021 455.82 883.159 452.61 884.228 450.827C886.01 448.33 887.436 445.833 889.218 443.337M890.644 439.413C886.367 444.05 883.159 449.757 879.595 454.75C874.606 461.527 869.972 468.66 864.27 474.723C855.716 483.283 845.737 489.347 834.689 493.27C825.066 496.837 815.087 499.69 805.464 502.9C792.277 507.537 784.08 520.02 783.724 534.287H814.374C816.869 533.217 818.651 531.433 820.789 529.65C826.135 525.013 832.194 522.517 838.609 520.02C849.658 515.74 861.062 512.53 871.754 506.467C877.813 502.9 882.803 498.62 887.792 494.34C889.218 492.913 889.574 491.13 890.644 489.347V439.057V439.413Z" fill="#BB383D"/>
<path d="M519.275 1.42666H548.856C548.856 1.42666 550.994 3.92333 551.351 5.70666V6.77666C554.915 14.2667 559.192 21.0433 565.25 27.4633C567.032 29.2467 569.171 31.3867 572.022 31.3867C572.735 31.3867 573.448 31.3867 574.16 31.3867C577.724 29.96 578.437 26.75 578.794 23.8967V23.1833C579.863 19.26 579.863 15.3367 579.506 11.4133C579.506 9.27332 579.506 7.48999 579.506 5.34999V4.63666C579.506 4.63666 579.506 2.49666 580.219 1.78333H614.434C616.216 7.84666 619.067 14.2667 623.344 20.6867C629.759 30.6733 639.025 39.2333 651.499 47.4367C663.617 55.2833 675.378 59.92 687.139 60.99C691.772 61.3467 696.406 61.7033 699.613 61.7033C701.395 61.7033 703.534 61.7033 705.316 61.7033H714.938C721.354 61.7033 726.343 62.4167 730.62 63.8433C738.817 66.34 743.807 72.0467 745.232 80.9633C746.302 86.67 746.658 92.3766 745.945 99.8666C744.876 113.42 739.53 124.12 729.194 132.323C725.274 135.533 720.997 138.387 716.72 141.24L709.949 145.877C693.554 157.647 683.219 174.41 678.942 195.097C677.16 204.727 676.804 214.357 676.447 223.63C676.447 226.84 676.447 230.407 676.091 233.617C675.378 248.953 672.17 261.08 666.824 271.423C658.271 287.473 647.935 296.033 634.036 298.53C632.61 298.53 631.184 298.53 629.759 298.53C617.998 298.53 607.662 290.683 604.098 278.913C600.89 269.283 600.178 259.297 599.465 250.38V244.673C598.396 235.757 597.683 226.84 596.257 217.923C593.05 198.663 589.486 176.193 587.347 153.723C585.565 136.96 579.15 121.98 567.389 109.853C565.607 108.07 563.468 105.93 561.686 104.147C558.479 100.937 555.271 97.7267 552.064 94.16C547.787 89.5233 544.223 83.8167 542.084 77.7533C538.877 69.55 537.095 60.6333 534.956 52.0733C531.749 37.8067 526.759 24.2533 522.126 11.0567L518.562 1.06999M516.424 -0.356674C522.482 17.12 529.61 33.8833 533.531 52.0733C535.313 60.99 537.451 69.55 540.659 78.11C543.154 84.53 546.361 89.88 550.994 94.8733C555.984 100.223 560.974 105.573 565.963 110.567C577.368 122.337 584.14 136.603 585.565 153.367C587.704 174.767 590.911 196.167 594.475 217.567C596.257 228.267 596.97 239.323 597.683 250.023C598.396 259.653 599.108 269.64 602.316 278.913C606.236 291.397 617.285 299.243 629.402 299.243C630.828 299.243 632.254 299.243 634.036 298.887C650.074 296.033 660.409 285.333 667.894 271.067C674.309 259.297 676.804 246.457 677.516 232.903C678.229 220.063 677.873 207.223 680.368 194.383C684.288 173.697 694.624 157.647 710.662 145.877C717.077 141.24 723.492 136.96 729.907 131.967C740.243 123.763 746.302 112.707 747.371 98.44C747.727 92.02 747.727 85.6 746.658 79.18C744.876 69.55 739.174 63.8433 730.976 60.99C725.63 59.2067 720.284 58.85 714.938 58.85C713.513 58.85 712.444 58.85 711.018 58.85C707.098 58.85 703.534 58.85 699.613 58.85C695.336 58.85 691.416 58.85 687.139 58.4933C674.309 57.0667 662.904 52.0733 652.212 44.94C641.52 37.8067 631.541 29.6033 624.413 18.5467C620.492 12.4833 617.285 6.06333 615.503 -1.07001H579.506C579.506 -1.07001 578.081 2.13999 578.081 3.92333C578.081 9.98666 578.794 15.6933 577.368 21.7567C576.655 24.61 576.655 27.82 573.448 28.89C572.735 28.89 572.378 28.89 571.666 28.89C569.171 28.89 567.389 27.1067 565.963 25.3233C560.261 19.26 555.984 12.84 552.776 5.34999C551.707 2.85333 551.351 0.356659 548.856 -1.07001H516.78L516.424 -0.356674Z" fill="#BB383D"/>
<path d="M535.313 363.8C541.372 363.8 546.718 365.583 551.351 369.15C555.984 372.717 559.904 377.353 564.181 383.417C572.378 395.9 577.724 409.81 583.07 423.72L584.496 427.287V428.713C589.842 440.84 594.832 453.68 601.247 465.45C605.167 472.227 606.236 479.36 604.811 486.85C603.029 497.907 601.96 510.39 601.96 523.943C601.96 525.37 601.96 527.153 601.96 528.58C601.96 530.007 601.96 531.79 601.96 533.573H560.617C560.617 533.573 558.122 530.72 557.053 528.937C556.697 528.223 556.34 527.51 555.984 526.797C551.707 520.02 547.787 513.6 545.292 506.11C538.52 486.493 536.382 464.737 538.164 439.77V436.203C538.877 429.783 539.59 423.007 538.164 416.23C536.738 406.243 529.254 399.467 519.988 399.467C518.918 399.467 518.206 399.467 517.136 399.467C506.801 400.893 496.465 404.817 484.704 411.95C478.289 415.873 472.586 420.867 467.597 426.573C459.756 435.847 453.697 447.26 449.777 460.457C442.649 485.423 436.946 507.893 433.026 528.937V529.65C432.67 531.433 432.313 532.86 431.244 533.217H387.05C388.832 526.083 390.971 520.377 394.535 515.74C398.455 510.033 402.732 505.04 406.652 500.403C414.493 491.13 420.552 482.57 425.542 473.297C429.462 466.163 432.67 458.673 435.877 451.54C438.016 446.903 440.154 441.91 442.292 437.273C447.995 425.503 455.836 415.16 466.528 405.53C480.071 393.403 495.04 382.347 508.939 372.717C514.642 368.437 520.344 365.94 526.403 364.513C529.254 363.8 532.105 363.443 534.6 363.443M534.6 362.017C531.749 362.017 528.898 362.373 526.046 363.087C519.631 364.513 513.572 367.367 508.226 371.29C493.614 381.633 479.002 392.333 465.458 404.46C455.479 413.377 446.926 424.077 440.867 436.56C435.164 448.687 430.531 461.17 424.116 472.583C418.77 482.213 412.355 491.13 405.583 499.333C401.306 504.327 397.03 509.32 393.466 514.67C389.189 520.733 387.05 527.153 385.625 534.287H431.957C434.095 533.217 434.452 531.077 434.808 528.937C439.085 505.753 445.144 483.283 451.559 460.813C455.123 448.33 460.825 436.917 469.022 427.287C474.012 421.58 479.714 416.943 485.773 413.02C495.752 406.957 506.088 402.32 517.849 400.537C518.562 400.537 519.631 400.537 520.344 400.537C528.898 400.537 535.669 406.6 537.095 416.23C538.52 424.077 537.095 431.567 537.095 439.413C535.313 462.24 536.738 484.71 544.223 506.467C546.718 513.957 550.994 520.733 555.271 527.51C556.697 530.007 558.122 533.217 560.617 534.643H603.742C603.742 530.72 603.029 527.153 603.029 523.587C603.029 511.103 603.742 498.62 605.88 486.493C607.306 478.647 605.88 471.157 601.96 464.023C595.544 451.897 590.555 439.057 585.565 426.217C579.506 411.237 574.16 395.9 565.25 382.347C561.686 376.64 557.41 371.647 552.064 367.723C546.718 363.8 541.015 362.017 534.956 362.017H534.6Z" fill="#BB383D"/>
<path d="M124.384 529.65V531.077C128.66 531.077 132.581 531.79 136.501 533.573H114.404C114.404 533.573 116.543 532.147 117.612 531.79C119.75 531.433 122.245 531.077 124.384 531.077V529.65ZM124.384 529.65C121.889 529.65 119.75 529.65 117.256 530.363C114.761 530.72 112.979 532.86 111.197 535H141.847C136.145 531.433 130.442 529.65 124.027 529.65H124.384Z" fill="#BB383D"/>
<path d="M722.423 413.733V415.16C731.689 415.16 738.817 419.083 743.807 426.93C749.509 435.847 750.222 454.393 736.322 465.093C729.194 470.8 720.641 471.87 712.8 471.87C701.752 471.87 692.842 469.373 685.357 465.45C681.793 463.667 678.586 461.527 677.873 457.247C677.16 452.253 677.873 447.617 680.368 443.693C682.506 440.127 684.644 437.273 687.139 434.42C696.762 422.65 706.741 416.587 718.146 415.517C719.572 415.517 720.997 415.517 722.423 415.517V414.09M722.423 414.09C722.423 414.09 719.572 414.09 717.79 414.09C704.603 415.873 694.624 423.363 686.07 433.707C683.575 436.56 681.437 439.77 679.298 442.98C676.447 447.26 675.734 452.61 676.447 457.603C677.16 462.24 681.08 464.737 684.644 466.877C693.554 471.513 703.177 472.94 712.8 473.297C721.354 473.297 729.907 471.87 737.035 466.163C751.291 455.107 750.935 435.847 744.876 426.217C739.174 417.3 731.333 414.09 722.423 414.09Z" fill="#BB383D"/>
<path d="M725.987 250.38C725.987 250.38 728.838 250.737 730.62 251.807C735.61 254.303 739.174 258.94 742.738 263.22L744.52 265.36C752.717 275.703 761.627 286.76 770.893 297.103C773.744 300.313 776.596 303.167 779.447 306.377C790.495 318.147 802.256 330.273 811.879 343.827C817.225 351.317 822.928 358.45 828.274 365.583C835.758 375.57 843.599 385.557 850.727 396.257C858.211 407.313 861.062 416.587 859.637 426.573C856.786 447.973 843.955 464.023 825.779 468.303C823.284 469.017 820.789 469.373 818.294 469.373C811.879 469.373 800.474 467.233 795.841 451.897C794.059 446.19 792.634 440.483 791.564 434.777C790.852 431.923 790.139 429.07 789.426 425.86C784.436 405.53 774.101 391.62 758.063 384.13C745.945 378.423 732.758 375.57 717.79 375.57C712.087 375.57 706.028 375.927 699.97 376.64C688.921 378.067 678.942 382.703 669.319 386.983C662.904 389.837 655.776 392.69 647.935 393.047C635.818 393.047 623.344 382.703 620.136 370.22C618.354 363.8 620.849 357.38 626.195 353.457C630.115 350.603 634.748 348.107 639.738 346.323C657.914 339.903 673.24 327.777 685.357 309.23C692.485 298.53 699.257 287.117 707.098 272.85L708.523 269.997C711.731 263.933 714.938 258.227 719.572 253.233C721.71 251.093 723.492 250.023 725.274 250.023M725.274 248.597C722.779 248.597 720.997 249.667 718.502 252.163C713.156 257.87 709.592 265.003 706.028 271.78C699.257 284.263 692.129 296.39 684.288 308.16C672.883 325.28 658.271 338.12 639.382 344.897C634.392 346.68 629.759 348.82 625.482 352.03C619.78 356.31 616.928 363.087 619.067 370.22C622.274 383.417 635.461 394.117 647.935 394.117C655.776 394.117 662.904 391.263 670.032 388.053C680.011 383.773 689.634 379.137 700.326 377.71C706.385 376.997 712.087 376.64 718.146 376.64C731.689 376.64 745.232 379.137 758.063 385.2C774.457 393.047 784.08 407.67 788.713 425.86C790.852 434.42 792.634 443.337 795.128 451.897C799.049 465.093 808.672 470.087 818.651 470.087C821.146 470.087 823.997 470.087 826.492 469.017C846.806 464.023 858.924 446.19 861.419 425.86C862.844 414.09 858.568 403.747 852.152 394.473C840.035 376.283 826.135 359.877 813.305 342.4C800.831 325.28 786.218 310.657 771.962 295.677C762.696 285.69 754.142 274.99 745.589 263.933C741.312 258.583 737.392 252.877 731.333 249.667C729.194 248.597 727.769 248.24 725.987 248.24L725.274 248.597Z" fill="#BB383D"/>
<path d="M521.77 400.537C525.69 400.537 528.898 401.963 532.105 404.817C538.52 411.237 538.877 419.083 538.52 428.357C538.52 432.28 538.164 436.203 537.808 440.127C537.808 444.763 537.095 449.4 536.738 454.037C536.738 463.667 537.451 473.297 538.52 481.857C540.659 497.193 544.936 510.033 551.707 521.09C552.42 522.16 553.133 523.23 553.489 523.943C555.271 526.797 557.41 530.007 558.835 533.573H434.095C436.946 516.453 441.223 499.69 445.5 483.283L447.995 474.01C452.984 454.75 459.756 435.133 475.794 421.223C489.694 409.097 503.95 402.677 519.631 400.893C520.344 400.893 521.057 400.893 521.413 400.893M521.413 399.467C521.413 399.467 519.988 399.467 519.275 399.467C502.524 401.25 487.555 408.74 474.725 420.153C458.687 434.063 451.559 453.323 446.569 473.653C441.58 493.627 436.234 513.243 432.67 533.573C432.67 533.93 432.67 534.643 432.313 535H560.617C558.835 529.293 555.628 525.013 552.776 520.377C545.648 508.607 541.728 495.41 539.946 481.857C538.52 472.583 537.808 463.31 537.808 454.037C537.808 445.477 539.233 436.917 539.59 428.357C539.59 419.44 539.59 410.523 532.818 403.747C529.61 400.537 525.69 399.11 521.77 399.11L521.413 399.467Z" fill="#BB383D"/>
<path d="M848.232 158.003C853.578 158.003 859.28 158.36 865.339 159.43C870.685 160.143 876.031 162.283 881.377 164.067C883.872 165.137 886.723 166.207 889.574 166.92V249.667C886.01 250.737 882.09 251.45 878.526 252.52C868.19 255.017 858.568 256.443 849.658 256.443C841.46 256.443 833.62 255.373 826.135 253.233C809.028 248.24 789.782 231.12 787.644 208.293C786.218 190.46 793.346 174.767 807.246 167.99C820.076 161.57 833.263 158.36 848.588 158.36M848.588 156.933C834.332 156.933 820.076 159.787 806.533 166.92C791.564 174.41 784.793 191.173 786.218 208.65C788.357 230.763 806.533 249.31 825.779 254.66C833.62 256.8 841.817 257.87 849.658 257.87C859.28 257.87 869.26 256.443 878.882 253.947C882.803 252.877 887.08 251.807 891 250.737V165.85C882.446 163.353 874.606 159.073 865.696 158.003C859.993 157.29 854.291 156.577 848.588 156.577V156.933Z" fill="#BB383D"/>
<path d="M27.7992 366.297C30.6504 366.297 33.1452 366.297 35.64 367.01C53.8164 370.22 65.934 382.703 71.6364 403.39C75.2004 416.587 74.844 431.21 70.5672 447.973C65.934 466.163 55.5984 477.22 39.204 481.5C27.7992 484.71 16.3944 484.71 2.8512 484.71H1.4256V457.603C1.4256 457.603 2.8512 456.89 4.2768 456.89H4.6332C4.6332 456.89 6.7716 456.89 7.8408 456.89H9.6228C13.5432 456.89 17.1072 456.89 21.0276 456.177C41.3424 452.61 53.8164 436.203 53.1036 414.803C52.7472 401.25 44.55 391.62 32.4324 389.48C31.0068 389.48 29.5812 389.48 28.1556 389.48C26.3736 389.48 24.5916 389.48 22.8096 389.837C16.3944 390.907 10.692 392.69 3.9204 394.473H3.564C3.564 394.473 2.4948 394.83 2.1384 394.83C2.1384 394.83 1.782 394.83 1.4256 394.83V370.22C4.6332 369.863 8.1972 369.15 11.4048 368.437C15.6816 367.723 21.7404 366.653 27.4428 366.653M27.4428 365.227C22.0968 365.227 16.3944 365.94 11.0484 367.01C7.4844 367.723 3.564 368.437 -0.3564 368.793V395.187C-0.3564 395.187 1.0692 396.257 1.782 396.257C2.4948 396.257 3.2076 396.257 4.2768 395.543C10.3356 393.76 16.7508 391.62 22.8096 390.907C24.5916 390.907 26.3736 390.55 28.1556 390.55C29.5812 390.55 30.6504 390.55 32.076 390.55C43.8372 392.333 51.3216 401.607 51.678 414.447C52.3908 435.133 40.2732 450.827 20.6712 454.393C17.1072 455.107 13.1868 455.107 9.6228 455.107H7.8408C7.8408 455.107 5.7024 455.107 4.6332 455.107C2.8512 455.107 1.0692 455.107 4.47035e-07 456.89V486.137H2.8512C15.3252 486.137 27.4428 486.137 39.5604 482.57C56.6676 477.933 67.3596 466.163 71.9928 447.973C75.9132 432.993 76.9824 417.657 73.062 402.677C67.716 382.703 55.9548 368.793 35.9964 365.227C33.1452 364.87 30.6504 364.513 27.7992 364.513L27.4428 365.227Z" fill="#BB383D"/>
<path d="M613.364 67.41V68.8367C624.413 68.8367 634.036 72.4033 645.797 77.04C658.984 82.39 674.665 88.4533 690.703 92.02C693.198 92.3767 696.406 93.09 698.544 94.5167C704.959 98.7967 706.028 101.65 703.177 108.427C702.108 111.28 700.682 113.42 699.257 115.203L697.831 116.987C693.554 122.337 689.278 127.687 685.001 133.393C673.596 148.017 665.755 161.927 661.122 176.907C657.202 188.677 655.776 202.23 656.489 217.21C656.489 219.707 656.489 222.203 656.489 224.343C656.489 228.623 656.489 231.833 656.489 235.043C656.489 242.177 655.42 250.38 651.499 258.227C649.361 262.507 646.51 266.073 642.946 268.57C640.451 270.353 637.6 271.423 635.105 271.423C629.759 271.423 625.126 267.5 622.631 260.723C620.136 254.303 619.78 247.17 619.423 240.037V238.61C619.423 233.26 619.423 227.91 619.423 222.56C619.423 216.853 619.423 210.79 619.423 204.727C618.71 191.173 618.71 177.263 618.71 164.067V156.22C618.71 148.373 617.998 140.17 616.216 130.183C615.146 123.05 613.364 115.917 611.582 109.14C610.513 105.573 609.8 102.007 609.088 98.7967C608.731 97.0133 608.375 95.5867 607.662 93.8033C606.236 88.4533 604.811 83.1033 605.167 77.3967C605.167 73.83 606.593 69.9067 612.295 69.55H614.077V68.1233M614.077 68.1233C614.077 68.1233 612.652 68.1233 611.939 68.1233C606.593 68.1233 603.742 71.69 603.385 77.04C603.385 84.53 605.524 91.6633 607.306 98.7967C609.8 109.14 613.008 119.483 614.79 130.183C616.216 138.743 617.285 147.303 617.285 156.22C617.285 172.27 617.285 188.677 617.998 204.727C618.71 216.14 617.998 227.197 618.71 238.61C619.067 246.1 619.423 253.947 621.918 261.08C624.769 268.927 630.115 272.85 635.818 272.85C638.669 272.85 641.52 271.78 644.371 269.997C648.292 267.5 651.143 263.577 653.638 259.297C657.558 251.807 658.627 243.603 658.984 235.4C658.984 230.407 658.984 225.057 658.984 217.567C658.627 205.797 659.34 191.53 663.617 177.62C668.606 161.57 677.16 147.66 687.139 134.82C691.772 128.757 696.762 122.693 701.395 116.63C703.177 114.49 704.246 111.993 705.316 109.497C708.167 102.363 707.454 98.44 699.97 93.8033C697.475 92.3767 694.624 91.6633 691.772 90.95C676.447 87.3833 661.478 82.0333 646.866 75.97C636.174 71.69 625.482 67.41 613.721 67.41L614.077 68.1233Z" fill="#BB383D"/>
<path d="M28.8684 390.193H29.9376C39.5604 390.193 47.4012 396.97 50.6088 406.6C53.46 416.587 52.0344 428 46.6884 437.273C41.6988 446.19 33.5016 452.253 24.2352 454.393C18.8892 455.463 13.5432 455.82 7.8408 455.82H5.346C5.346 455.82 2.8512 455.82 1.4256 455.82V396.257C1.4256 396.257 3.564 395.543 4.9896 395.187H6.0588C13.5432 392.69 21.0276 390.193 29.2248 390.193M29.2248 388.767C20.6712 388.767 12.8304 391.263 4.6332 393.76C3.2076 394.117 1.782 394.473 0.3564 394.83V456.89C0.3564 456.89 3.9204 456.89 5.7024 456.89H8.1972C13.8996 456.89 19.2456 456.89 24.948 455.463C45.6192 450.827 58.806 426.93 52.3908 405.887C49.1832 395.9 40.6296 389.123 30.6504 388.767H29.2248Z" fill="#BB383D"/>
<path d="M225.245 151.94C225.245 151.94 227.74 151.94 229.165 152.653C235.937 154.437 241.996 158.36 248.054 162.283L249.48 163.353C262.31 171.557 274.784 179.76 286.902 187.963C295.099 193.313 303.296 199.02 309.712 206.51C316.483 214.357 319.691 222.203 318.978 231.12C319.334 237.897 317.196 243.96 311.85 250.023C305.078 257.513 296.525 262.863 290.11 266.43L285.12 269.283C275.497 274.633 265.518 280.34 256.252 286.76C252.331 289.613 248.767 291.753 245.56 293.18C243.421 294.25 241.639 294.607 239.857 294.607C235.224 294.607 232.016 290.683 231.66 284.263C231.66 280.34 231.66 276.06 232.729 271.067C235.224 255.373 234.511 241.107 231.304 227.197C229.878 220.777 227.74 214 225.958 207.937C223.819 200.803 221.681 193.67 220.255 186.18C218.83 179.047 217.404 171.2 217.404 163.353C217.404 156.577 220.255 153.01 225.245 153.01M225.245 151.583C219.542 151.583 216.335 155.507 215.978 163.353C215.978 171.2 217.048 179.047 218.83 186.893C222.037 200.803 226.67 214 229.878 227.91C233.442 242.177 233.442 256.8 231.304 271.423C230.591 275.703 229.878 280.34 230.234 284.977C230.234 292.467 234.155 296.747 239.857 296.747C241.639 296.747 243.778 296.39 245.916 295.32C249.836 293.537 253.4 291.04 256.964 288.543C267.656 281.053 279.061 274.633 290.466 268.213C298.663 263.577 306.148 258.583 312.563 251.45C317.552 245.743 320.76 239.68 320.047 231.833C320.404 221.49 316.483 213.287 310.424 206.51C303.653 199.02 295.456 193.313 287.258 187.963C274.784 179.76 262.667 171.2 249.836 163.353C243.421 159.073 236.65 154.793 229.165 153.01C227.74 152.653 225.958 152.297 224.888 152.297L225.245 151.583Z" fill="#BB383D"/>
<path d="M489.694 456.177C489.694 456.177 491.832 456.89 493.258 457.96C497.891 462.597 499.316 470.8 496.109 476.507C493.97 480.43 491.832 482.213 488.624 482.57C487.199 482.57 485.773 481.857 484.348 480.787C480.427 477.577 480.071 472.94 480.427 470.087C480.427 464.737 483.635 459.03 486.842 456.89C487.912 456.177 488.624 456.177 489.694 456.177ZM489.694 454.75C489.694 454.75 487.555 455.107 486.13 455.82C479.714 459.387 474.725 475.08 483.635 481.857C485.06 483.283 486.842 483.64 488.624 483.997C492.901 483.64 495.396 480.43 497.178 477.22C500.742 471.157 498.96 461.883 493.97 457.247C492.545 455.82 491.119 455.107 489.694 455.107V454.75Z" fill="#BB383D"/>
<path d="M244.134 524.657C244.134 524.657 247.342 524.657 249.124 525.727C254.113 527.51 258.034 530.363 260.885 533.93H233.798V533.217C235.58 529.293 238.432 524.657 244.134 524.657ZM244.134 523.23C238.788 523.23 234.868 526.44 232.729 532.503C232.729 533.573 232.016 534.287 231.66 535H263.736C260.172 529.65 255.539 526.083 249.836 524.3C248.054 523.587 246.272 523.23 244.49 523.23H244.134Z" fill="#BB383D"/>
<path d="M120.463 195.81C124.384 195.81 128.304 197.95 130.799 202.23C132.224 204.37 132.937 206.51 133.65 209.72C135.076 217.21 134.363 225.057 133.65 232.547C133.65 234.687 133.294 236.827 132.937 238.967C131.868 250.737 131.512 260.367 132.224 268.927V275.703C133.294 284.977 134.006 294.25 134.006 303.523C134.006 314.223 132.937 323.14 130.086 330.987C127.948 336.337 125.096 339.19 120.463 339.19C119.038 339.19 117.612 339.19 116.186 338.477C111.553 337.05 106.92 334.553 101.574 330.987L99.792 329.56C85.8924 319.93 71.9928 309.587 58.0932 299.6C53.1036 296.033 48.114 292.11 44.1936 287.117C34.2144 274.99 33.858 264.647 42.0552 253.233C44.55 250.023 47.4012 247.17 50.6088 244.673C56.3112 240.393 62.0136 236.113 67.3596 232.19C76.9824 225.057 86.9616 217.923 96.228 209.72C101.574 205.083 108.346 199.733 116.899 196.88C118.325 196.523 119.75 196.167 121.176 196.167M121.176 194.74C121.176 194.74 117.968 194.74 116.543 195.453C108.702 197.95 101.93 202.943 95.5152 208.65C80.9028 221.49 64.8648 231.833 49.5396 243.603C46.332 246.1 43.1244 248.953 40.6296 252.52C31.0068 265.36 33.5016 276.773 42.768 288.187C47.0448 293.18 52.0344 297.103 57.024 300.67C71.6364 311.37 86.2488 321.713 100.861 332.057C105.494 335.267 110.484 338.12 115.83 339.903C117.612 340.26 119.038 340.617 120.463 340.617C125.453 340.617 129.373 337.407 131.512 331.7C134.719 322.783 135.788 313.153 135.432 303.88C135.432 292.467 134.363 280.697 133.65 269.283C132.937 259.297 133.65 249.31 134.363 239.323C135.076 229.337 137.214 219.707 135.432 209.72C135.076 206.867 134.006 204.013 132.581 201.517C129.73 197.237 125.809 194.74 121.176 194.74Z" fill="#BB383D"/>
<path d="M507.157 225.77C507.157 225.77 509.652 225.77 511.078 226.483H511.79C517.493 227.91 522.839 231.833 526.046 237.54C529.254 243.603 530.323 250.38 528.185 256.443C526.403 261.793 523.552 266.43 519.631 270.71C515.711 274.99 511.79 278.557 507.87 282.48C505.732 284.62 503.593 286.76 501.455 288.9C489.694 300.67 477.932 314.223 463.676 331.7C456.192 340.973 446.926 351.317 434.452 358.45C426.967 363.087 420.196 365.227 413.424 365.583C413.068 365.583 412.711 365.583 412.355 365.583C408.434 365.583 405.583 364.157 403.801 361.303C401.663 358.093 402.376 355.24 404.158 350.96C405.94 347.037 408.078 342.757 410.573 339.19C423.403 322.783 433.382 304.95 440.154 285.69C445.144 271.78 451.559 260.723 460.112 252.52C468.666 243.603 479.002 236.113 490.05 230.407C496.109 227.197 501.455 225.77 506.444 225.413H507.157M507.157 223.987H506.088C500.029 224.343 494.327 226.483 488.981 229.337C477.932 235.4 467.953 242.533 458.687 251.807C449.42 261.08 443.005 272.85 438.372 285.69C431.6 305.307 421.621 322.783 409.147 338.833C406.296 342.4 404.514 346.323 402.376 350.603C400.594 354.527 399.168 358.45 402.019 362.373C404.514 365.94 408.078 367.01 411.642 367.01C411.998 367.01 412.355 367.01 413.068 367.01C420.908 366.653 428.036 363.443 434.452 359.52C445.856 352.743 455.123 343.113 464.033 332.413C476.15 317.79 488.624 303.167 501.811 289.97C507.87 283.907 514.285 278.2 519.988 271.78C523.908 267.5 526.759 262.507 528.898 256.8C533.174 243.603 524.621 227.91 511.434 225.057C509.652 224.7 508.226 223.987 506.444 223.987H507.157Z" fill="#BB383D"/>
<path d="M729.907 299.243V300.67C733.471 300.67 737.748 302.097 742.738 305.663C754.142 313.51 763.765 323.14 771.25 334.91C775.17 340.973 777.308 345.967 778.378 350.96C778.734 353.1 778.378 355.24 777.308 356.667C776.239 358.093 774.814 359.163 773.032 359.52C770.537 359.877 768.398 360.233 766.26 360.233H765.191C754.142 359.52 743.45 358.093 733.471 356.31C725.63 354.883 717.077 353.1 709.592 348.82C703.89 345.61 701.395 339.547 703.177 332.77C705.316 324.21 708.88 316.72 713.513 311.37C719.572 303.88 724.561 300.67 729.907 300.67V299.243ZM729.907 299.243C723.848 299.243 718.146 303.167 712.444 310.3C707.098 316.72 703.89 324.21 701.752 332.413C699.97 339.903 702.821 346.323 708.88 349.89C716.364 354.17 724.561 355.953 733.115 357.737C743.807 359.52 754.499 360.947 765.191 361.66C765.547 361.66 765.904 361.66 766.26 361.66C768.755 361.66 770.893 361.303 773.388 360.947C778.021 360.233 780.872 355.597 779.803 350.96C778.734 344.897 775.883 339.547 772.319 334.553C764.478 322.783 754.855 312.797 743.45 304.95C738.461 301.383 733.828 299.6 729.907 299.6V299.243Z" fill="#BB383D"/>
</g>
<defs>
<clipPath id="clip0_8_285">
<rect width="891" height="535" fill="white"/>
</clipPath>
</defs>
</svg>
