<svg width="106" height="44" viewBox="0 0 106 44" fill="none" xmlns="http://www.w3.org/2000/svg">
<path d="M59.2136 4.35593H56.7281V19.5543H59.2136V4.35593Z" fill="#6D6E71"/>
<path d="M93.9678 6.80099C95.7214 6.80099 97.4281 7.19978 98.9083 7.95063L100.038 5.74486C98.2096 4.81524 96.1108 4.32568 93.9678 4.32568C88.5496 4.32568 83.9074 7.49957 82.4134 12.2274C82.3775 12.3429 82.3416 12.4529 82.3085 12.5629C83.1977 12.2219 84.1698 12.0129 85.186 11.9634C86.6579 8.83623 90.0491 6.79824 93.9678 6.79824V6.80099Z" fill="#6D6E71"/>
<path d="M103.711 8.6712L101.778 10.2279C102.78 11.4628 103.308 12.8985 103.308 14.3754C103.308 18.5504 99.1182 21.9498 93.9651 21.9498C93.816 21.9498 93.6614 21.9388 93.504 21.9251C93.1367 22.7804 92.5899 23.5588 91.9078 24.2298C92.1038 24.2491 92.3054 24.2711 92.5181 24.3014C92.9516 24.3591 93.446 24.4251 93.9624 24.4251C100.482 24.4251 105.79 19.9173 105.79 14.3754C105.79 12.3236 105.069 10.3517 103.708 8.6712H103.711Z" fill="#6D6E71"/>
<path d="M85.6473 13.8116C82.1594 13.8116 79.3233 16.2841 79.3233 19.3233C79.3233 20.4454 79.7099 21.4878 80.3727 22.3596H74.833C72.2841 22.3596 70.2129 20.2941 70.2129 17.7583V4.35593H67.7275V17.7583C67.7275 20.2969 65.6535 22.3596 63.1074 22.3596H56.325V24.8349H63.1074C65.5403 24.8349 67.6888 23.611 68.9702 21.749C70.2515 23.611 72.4028 24.8349 74.833 24.8349H85.6473C89.1351 24.8349 91.9713 22.3624 91.9713 19.3233C91.9713 16.2841 89.1351 13.8116 85.6473 13.8116ZM85.6473 22.3596C83.5292 22.3596 81.8087 20.9982 81.8087 19.3233C81.8087 17.6483 83.5319 16.2869 85.6473 16.2869C87.7626 16.2869 89.4859 17.6483 89.4859 19.3233C89.4859 20.9982 87.7626 22.3596 85.6473 22.3596Z" fill="#6D6E71"/>
<path d="M102.805 2.56546C102.752 2.82124 91.8608 14.3754 91.8608 14.3754L93.9678 16.1769L102.805 2.56546Z" fill="#CF3F44"/>
<path d="M42.1001 4.32568H35.5055C31.5868 4.32568 28.4 7.49957 28.4 11.4023V17.7556C28.4 21.6583 31.5868 24.8322 35.5055 24.8322H39.5512C39.1287 26.9389 37.2591 28.5341 35.0194 28.5341H30.6175V31.0094H35.0194C38.9381 31.0094 42.125 27.8355 42.125 23.9328V5.56333H42.0973V4.32568H42.1001ZM30.8826 17.7583V11.405C30.8826 8.86649 32.9566 6.80374 35.5027 6.80374H39.6395V22.3624H35.5027C32.9538 22.3624 30.8826 20.2969 30.8826 17.7611V17.7583Z" fill="#CF3F44"/>
<path d="M49.3216 4.35593H46.8362V24.7717H49.3216V4.35593Z" fill="#CF3F44"/>
<path d="M21.1812 17.7583C21.1812 20.2969 19.1073 22.3596 16.5611 22.3596H13.736V5.56333H13.7084V4.32568H7.11104C3.19237 4.32568 0.00552368 7.49957 0.00552368 11.4023V17.7556C0.00552368 21.6583 3.19237 24.8322 7.11104 24.8322H11.1567C10.7342 26.9389 8.86463 28.5341 6.625 28.5341H2.22582V31.0094H6.62776C10.2399 31.0094 13.2279 28.3114 13.6753 24.8322H16.5584C20.477 24.8322 23.6639 21.6583 23.6639 17.7556V4.35594H21.1785V17.7583H21.1812ZM2.49093 17.7583V11.405C2.49093 8.86649 4.56487 6.80374 7.11104 6.80374H11.2479V22.3624H7.11104C4.56211 22.3624 2.49093 20.2969 2.49093 17.7611V17.7583Z" fill="#CF3F44"/>
<path d="M48.0678 0.904263H49.3906V0.0791626H48.0678C47.1372 0.0791626 46.3833 0.832755 46.3833 1.75962C46.3833 2.07041 46.4716 2.36194 46.6208 2.61222H45.6929V3.43732H49.3934V2.61222H48.0706C47.5984 2.61222 47.2145 2.22992 47.2145 1.75962C47.2145 1.28931 47.5984 0.904263 48.0706 0.904263H48.0678Z" fill="#CF3F44"/>
<path d="M24.89 3.29153C25.7395 3.29153 26.4282 2.60566 26.4282 1.7596C26.4282 0.913533 25.7395 0.227661 24.89 0.227661C24.0405 0.227661 23.3518 0.913533 23.3518 1.7596C23.3518 2.60566 24.0405 3.29153 24.89 3.29153Z" fill="#CF3F44"/>
<path d="M20.2548 3.26974C21.0934 3.13418 21.6628 2.34727 21.5267 1.51214C21.3906 0.677005 20.6005 0.109889 19.7619 0.24545C18.9234 0.381012 18.3539 1.16792 18.49 2.00305C18.6262 2.83818 19.4163 3.4053 20.2548 3.26974Z" fill="#CF3F44"/>
<path d="M5.65017 37.5222H2.06013V33.7818H0V43.2099H2.06013V39.1394H5.65017V43.2099H7.7103V33.7818H5.65017V37.5222Z" fill="#6D6E71"/>
<path d="M16.3816 33.7818L12.8496 43.2127H14.9981L15.7354 41.0427H19.1018L19.8391 43.2127H22.018L18.5163 33.7818H16.3816ZM16.2021 39.53L16.6384 38.2731C16.7793 37.8633 16.9146 37.4617 17.0444 37.0684C17.1742 36.6751 17.2957 36.2873 17.4062 35.9078H17.4365C17.547 36.3066 17.663 36.7026 17.7817 37.0987C17.9032 37.492 18.033 37.8853 18.1739 38.2731L18.6102 39.53H16.2049H16.2021Z" fill="#6D6E71"/>
<path d="M29.187 33.7818H27.1296V43.2099H33.0063V41.5955H29.187V33.7818Z" fill="#6D6E71"/>
<path d="M42.8788 33.7818H40.7441L37.2121 43.2127H39.3606L40.0979 41.0427H43.4643L44.2016 43.2127H46.3805L42.8788 33.7818ZM40.5646 39.53L41.001 38.2731C41.1418 37.8633 41.2771 37.4617 41.4069 37.0684C41.5367 36.6751 41.6582 36.2873 41.7687 35.9078H41.7991C41.9095 36.3066 42.0255 36.7026 42.1443 37.0987C42.2658 37.492 42.3956 37.8853 42.5364 38.2731L42.9727 39.53H40.5674H40.5646Z" fill="#6D6E71"/>
<path d="M61.2267 33.7818L57.6946 43.2127H59.8431L60.5805 41.0427H63.9468L64.6842 43.2127H66.863L63.3614 33.7818H61.2267ZM61.0472 39.53L61.4835 38.2731C61.6244 37.8633 61.7597 37.4617 61.8895 37.0684C62.0193 36.6751 62.1408 36.2873 62.2512 35.9078H62.2816C62.3921 36.3066 62.5081 36.7026 62.6268 37.0987C62.7483 37.492 62.8781 37.8853 63.0189 38.2731L63.4553 39.53H61.0499H61.0472Z" fill="#CF3F44"/>
<path d="M77.7878 39.6042C77.7878 40.2533 77.6414 40.7814 77.3515 41.1912C77.0615 41.601 76.5893 41.8045 75.9375 41.8045C75.2858 41.8045 74.7887 41.6037 74.4711 41.1994C74.1563 40.7951 73.9989 40.2038 73.9989 39.4255V33.7818H71.9388V39.3814C71.9388 40.7484 72.295 41.7577 73.0047 42.4041C73.7172 43.0531 74.6921 43.3777 75.9348 43.3777C77.1775 43.3777 78.202 43.0531 78.8593 42.4041C79.5165 41.755 79.8424 40.7731 79.8424 39.4557V33.7818H77.7823V39.6042H77.7878Z" fill="#CF3F44"/>
<path d="M84.9293 35.3962H87.5445V43.2099H89.6018V35.3962H92.2778V33.7818H84.9293V35.3962Z" fill="#CF3F44"/>
<path d="M105.647 36.4303C105.412 35.8225 105.089 35.3109 104.677 34.8956C104.266 34.4831 103.777 34.164 103.205 33.944C102.634 33.724 102.012 33.614 101.341 33.614C100.67 33.614 100.046 33.7267 99.4689 33.9495C98.8917 34.1751 98.3946 34.4996 97.9721 34.9231C97.5524 35.3467 97.221 35.861 96.9807 36.4661C96.7405 37.0712 96.619 37.7505 96.619 38.5096C96.619 39.2687 96.7377 39.9783 96.9724 40.5833C97.2072 41.1884 97.5303 41.6972 97.9418 42.1098C98.3532 42.5251 98.8448 42.8386 99.4137 43.0531C99.9853 43.2677 100.607 43.3749 101.278 43.3749C101.949 43.3749 102.573 43.2622 103.15 43.0394C103.727 42.8139 104.224 42.4921 104.647 42.074C105.069 41.656 105.398 41.1472 105.638 40.5476C105.878 39.948 106 39.2714 106 38.5123C106 37.7532 105.881 37.0409 105.647 36.4331V36.4303ZM103.625 39.97C103.495 40.3853 103.319 40.7291 103.1 41.0041C102.879 41.2792 102.617 41.4827 102.311 41.6175C102.004 41.7522 101.681 41.8182 101.341 41.8182C101.002 41.8182 100.662 41.7495 100.358 41.6175C100.052 41.4827 99.7837 41.2792 99.5545 41.0041C99.3253 40.7291 99.1403 40.3853 99.005 39.97C98.8696 39.5575 98.8034 39.0706 98.8034 38.5096C98.8034 37.9485 98.8696 37.4617 98.9994 37.0436C99.1292 36.6256 99.306 36.2791 99.5269 36.004C99.7478 35.729 100.007 35.5227 100.308 35.3824C100.609 35.2422 100.935 35.1734 101.286 35.1734C101.637 35.1734 101.965 35.2394 102.272 35.3687C102.578 35.498 102.846 35.7015 103.076 35.9738C103.305 36.2488 103.49 36.5953 103.625 37.0134C103.76 37.4314 103.829 37.932 103.829 38.5096C103.829 39.0871 103.763 39.5547 103.633 39.97H103.625Z" fill="#CF3F44"/>
</svg>
