<svg width="106" height="44" viewBox="0 0 106 44" fill="none" xmlns="http://www.w3.org/2000/svg">
<path d="M59.212 4.35593H56.7266V19.5543H59.212V4.35593Z" fill="white"/>
<path d="M93.9679 6.80099C95.7215 6.80099 97.4282 7.19978 98.9084 7.95063L100.038 5.74486C98.2097 4.81524 96.1109 4.32568 93.9679 4.32568C88.5497 4.32568 83.9075 7.49957 82.4135 12.2274C82.3776 12.3429 82.3417 12.4529 82.3086 12.5629C83.1978 12.2219 84.1699 12.0129 85.1862 11.9634C86.6581 8.83623 90.0493 6.79824 93.9679 6.79824V6.80099Z" fill="white"/>
<path d="M103.709 8.6712L101.776 10.2279C102.779 11.4628 103.306 12.8985 103.306 14.3754C103.306 18.5504 99.1167 21.9498 93.9636 21.9498C93.8145 21.9498 93.6598 21.9388 93.5024 21.9251C93.1351 22.7804 92.5884 23.5588 91.9062 24.2298C92.1023 24.2491 92.3039 24.2711 92.5166 24.3014C92.9501 24.3591 93.4444 24.4251 93.9609 24.4251C100.481 24.4251 105.789 19.9173 105.789 14.3754C105.789 12.3236 105.068 10.3517 103.706 8.6712H103.709Z" fill="white"/>
<path d="M85.6465 13.8116C82.1587 13.8116 79.3225 16.2841 79.3225 19.3233C79.3225 20.4454 79.7092 21.4878 80.372 22.3596H74.8322C72.2833 22.3596 70.2121 20.2941 70.2121 17.7583V4.35593H67.7267V17.7583C67.7267 20.2969 65.6528 22.3596 63.1066 22.3596H56.3242V24.8349H63.1066C65.5396 24.8349 67.6881 23.611 68.9694 21.749C70.2508 23.611 72.4021 24.8349 74.8322 24.8349H85.6465C89.1344 24.8349 91.9705 22.3624 91.9705 19.3233C91.9705 16.2841 89.1344 13.8116 85.6465 13.8116ZM85.6465 22.3596C83.5284 22.3596 81.808 20.9982 81.808 19.3233C81.808 17.6483 83.5312 16.2869 85.6465 16.2869C87.7619 16.2869 89.4851 17.6483 89.4851 19.3233C89.4851 20.9982 87.7619 22.3596 85.6465 22.3596Z" fill="white"/>
<path d="M102.805 2.56546C102.753 2.82124 91.8613 14.3754 91.8613 14.3754L93.9684 16.1769L102.805 2.56546Z" fill="white"/>
<path d="M42.1005 4.32568H35.5059C31.5872 4.32568 28.4004 7.49957 28.4004 11.4023V17.7556C28.4004 21.6583 31.5872 24.8322 35.5059 24.8322H39.5516C39.1291 26.9389 37.2595 28.5341 35.0199 28.5341H30.6179V31.0094H35.0199C38.9385 31.0094 42.1254 27.8355 42.1254 23.9328V5.56333H42.0978V4.32568H42.1005ZM30.883 17.7583V11.405C30.883 8.86649 32.957 6.80374 35.5031 6.80374H39.64V22.3624H35.5031C32.9542 22.3624 30.883 20.2969 30.883 17.7611V17.7583Z" fill="white"/>
<path d="M49.3213 4.35593H46.8359V24.7717H49.3213V4.35593Z" fill="white"/>
<path d="M21.1816 17.7583C21.1816 20.2969 19.1076 22.3596 16.5615 22.3596H13.7364V5.56333H13.7088V4.32568H7.11137C3.19271 4.32568 0.00585938 7.49957 0.00585938 11.4023V17.7556C0.00585938 21.6583 3.19271 24.8322 7.11137 24.8322H11.1571C10.7345 26.9389 8.86497 28.5341 6.62534 28.5341H2.22616V31.0094H6.6281C10.2402 31.0094 13.2282 28.3114 13.6756 24.8322H16.5587C20.4774 24.8322 23.6642 21.6583 23.6642 17.7556V4.35594H21.1788V17.7583H21.1816ZM2.49127 17.7583V11.405C2.49127 8.86649 4.56521 6.80374 7.11137 6.80374H11.2482V22.3624H7.11137C4.56245 22.3624 2.49127 20.2969 2.49127 17.7611V17.7583Z" fill="white"/>
<path d="M48.0683 0.904263H49.3911V0.0791626H48.0683C47.1377 0.0791626 46.3838 0.832755 46.3838 1.75962C46.3838 2.07041 46.4721 2.36194 46.6212 2.61222H45.6934V3.43732H49.3939V2.61222H48.0711C47.5988 2.61222 47.215 2.22992 47.215 1.75962C47.215 1.28931 47.5988 0.904263 48.0711 0.904263H48.0683Z" fill="white"/>
<path d="M24.8898 3.29153C25.7393 3.29153 26.4279 2.60566 26.4279 1.7596C26.4279 0.913533 25.7393 0.227661 24.8898 0.227661C24.0402 0.227661 23.3516 0.913533 23.3516 1.7596C23.3516 2.60566 24.0402 3.29153 24.8898 3.29153Z" fill="white"/>
<path d="M20.2554 3.26974C21.0939 3.13418 21.6634 2.34727 21.5272 1.51214C21.3911 0.677005 20.601 0.109889 19.7625 0.24545C18.9239 0.381012 18.3545 1.16792 18.4906 2.00305C18.6267 2.83818 19.4168 3.4053 20.2554 3.26974Z" fill="white"/>
<path d="M5.65017 37.5222H2.06013V33.7818H0V43.2099H2.06013V39.1394H5.65017V43.2099H7.7103V33.7818H5.65017V37.5222Z" fill="white"/>
<path d="M16.3817 33.7818L12.8496 43.2127H14.9981L15.7354 41.0427H19.1018L19.8391 43.2127H22.018L18.5163 33.7818H16.3817ZM16.2022 39.53L16.6385 38.2731C16.7793 37.8633 16.9146 37.4617 17.0444 37.0684C17.1742 36.6751 17.2957 36.2873 17.4062 35.9078H17.4366C17.547 36.3066 17.663 36.7026 17.7818 37.0987C17.9033 37.492 18.0331 37.8853 18.1739 38.2731L18.6102 39.53H16.2049H16.2022Z" fill="white"/>
<path d="M29.1863 33.7818H27.1289V43.2099H33.0055V41.5955H29.1863V33.7818Z" fill="white"/>
<path d="M42.8796 33.7818H40.7449L37.2129 43.2127H39.3614L40.0987 41.0427H43.4651L44.2024 43.2127H46.3813L42.8796 33.7818ZM40.5654 39.53L41.0018 38.2731C41.1426 37.8633 41.2779 37.4617 41.4077 37.0684C41.5375 36.6751 41.659 36.2873 41.7695 35.9078H41.7999C41.9103 36.3066 42.0263 36.7026 42.1451 37.0987C42.2666 37.492 42.3964 37.8853 42.5372 38.2731L42.9735 39.53H40.5682H40.5654Z" fill="white"/>
<path d="M61.2274 33.7818L57.6953 43.2127H59.8438L60.5811 41.0427H63.9475L64.6848 43.2127H66.8637L63.362 33.7818H61.2274ZM61.0479 39.53L61.4842 38.2731C61.625 37.8633 61.7603 37.4617 61.8901 37.0684C62.0199 36.6751 62.1414 36.2873 62.2519 35.9078H62.2823C62.3927 36.3066 62.5087 36.7026 62.6275 37.0987C62.749 37.492 62.8788 37.8853 63.0196 38.2731L63.4559 39.53H61.0506H61.0479Z" fill="white"/>
<path d="M77.7885 39.6042C77.7885 40.2533 77.6421 40.7814 77.3521 41.1912C77.0622 41.601 76.5899 41.8045 75.9382 41.8045C75.2865 41.8045 74.7894 41.6037 74.4718 41.1994C74.157 40.7951 73.9996 40.2038 73.9996 39.4255V33.7818H71.9395V39.3814C71.9395 40.7484 72.2957 41.7577 73.0054 42.4041C73.7179 43.0531 74.6927 43.3777 75.9354 43.3777C77.1781 43.3777 78.2027 43.0531 78.8599 42.4041C79.5172 41.755 79.8431 40.7731 79.8431 39.4557V33.7818H77.7829V39.6042H77.7885Z" fill="white"/>
<path d="M84.9297 35.3962H87.5449V43.2099H89.6023V35.3962H92.2782V33.7818H84.9297V35.3962Z" fill="white"/>
<path d="M105.647 36.4303C105.412 35.8225 105.089 35.3109 104.677 34.8956C104.266 34.4831 103.777 34.164 103.205 33.944C102.634 33.724 102.012 33.614 101.341 33.614C100.67 33.614 100.046 33.7267 99.4691 33.9495C98.8919 34.1751 98.3948 34.4996 97.9723 34.9231C97.5525 35.3467 97.2212 35.861 96.9809 36.4661C96.7406 37.0712 96.6191 37.7505 96.6191 38.5096C96.6191 39.2687 96.7379 39.9783 96.9726 40.5833C97.2074 41.1884 97.5305 41.6972 97.9419 42.1098C98.3534 42.5251 98.845 42.8386 99.4138 43.0531C99.9855 43.2677 100.607 43.3749 101.278 43.3749C101.949 43.3749 102.573 43.2622 103.15 43.0394C103.727 42.8139 104.224 42.4921 104.647 42.074C105.07 41.656 105.398 41.1472 105.638 40.5476C105.879 39.948 106 39.2714 106 38.5123C106 37.7532 105.881 37.0409 105.647 36.4331V36.4303ZM103.625 39.97C103.495 40.3853 103.319 40.7291 103.101 41.0041C102.88 41.2792 102.617 41.4827 102.311 41.6175C102.004 41.7522 101.681 41.8182 101.341 41.8182C101.002 41.8182 100.662 41.7495 100.358 41.6175C100.052 41.4827 99.7839 41.2792 99.5547 41.0041C99.3255 40.7291 99.1405 40.3853 99.0051 39.97C98.8698 39.5575 98.8035 39.0706 98.8035 38.5096C98.8035 37.9485 98.8698 37.4617 98.9996 37.0436C99.1294 36.6256 99.3061 36.2791 99.5271 36.004C99.748 35.729 100.008 35.5227 100.309 35.3824C100.61 35.2422 100.935 35.1734 101.286 35.1734C101.637 35.1734 101.966 35.2394 102.272 35.3687C102.579 35.498 102.846 35.7015 103.076 35.9738C103.305 36.2488 103.49 36.5953 103.625 37.0134C103.761 37.4314 103.83 37.932 103.83 38.5096C103.83 39.0871 103.763 39.5547 103.634 39.97H103.625Z" fill="white"/>
</svg>
