<svg width="54" height="54" viewBox="0 0 54 54" fill="none" xmlns="http://www.w3.org/2000/svg">
<path d="M54 27C54 12.0883 41.9117 0 27 0C12.0883 0 0 12.0883 0 27C0 41.9117 12.0883 54 27 54C41.9117 54 54 41.9117 54 27Z" fill="#CF3F44"/>
<path d="M26.1873 8.77083C25.9829 8.77083 25.7868 8.85204 25.6423 8.9966C25.4977 9.14116 25.4165 9.33722 25.4165 9.54166V18.7917C25.4165 18.9961 25.4977 19.1922 25.6423 19.3367C25.7868 19.4813 25.9829 19.5625 26.1873 19.5625C28.6398 19.5651 30.991 20.5405 32.7251 22.2747C34.4593 24.0088 35.4347 26.3601 35.4373 28.8125C35.4373 29.0169 35.5185 29.213 35.6631 29.3576C35.8077 29.5021 36.0037 29.5833 36.2082 29.5833H45.4582C45.6626 29.5833 45.8587 29.5021 46.0032 29.3576C46.1478 29.213 46.229 29.0169 46.229 28.8125C46.2231 23.4989 44.1097 18.4047 40.3524 14.6474C36.5951 10.8902 31.5009 8.77675 26.1873 8.77083ZM30.4269 15.7083C30.1982 15.7083 29.9747 15.6405 29.7845 15.5135C29.5944 15.3864 29.4462 15.2058 29.3587 14.9946C29.2712 14.7833 29.2483 14.5508 29.2929 14.3265C29.3375 14.1022 29.4476 13.8962 29.6093 13.7345C29.771 13.5728 29.9771 13.4627 30.2013 13.418C30.4256 13.3734 30.6581 13.3963 30.8694 13.4838C31.0807 13.5714 31.2613 13.7196 31.3883 13.9097C31.5154 14.0998 31.5832 14.3234 31.5832 14.5521C31.5832 14.8587 31.4614 15.1528 31.2445 15.3697C31.0277 15.5865 30.7336 15.7083 30.4269 15.7083ZM36.5936 19.5625C36.3649 19.5625 36.1414 19.4947 35.9512 19.3676C35.7611 19.2406 35.6129 19.06 35.5254 18.8487C35.4378 18.6374 35.4149 18.405 35.4596 18.1807C35.5042 17.9564 35.6143 17.7504 35.776 17.5887C35.9377 17.4269 36.1437 17.3168 36.368 17.2722C36.5923 17.2276 36.8248 17.2505 37.0361 17.338C37.2473 17.4255 37.4279 17.5737 37.555 17.7639C37.682 17.954 37.7498 18.1776 37.7498 18.4062C37.7498 18.7129 37.628 19.007 37.4112 19.2238C37.1943 19.4407 36.9002 19.5625 36.5936 19.5625ZM41.604 24.5729C41.604 24.8016 41.5362 25.0251 41.4091 25.2153C41.2821 25.4054 41.1015 25.5536 40.8902 25.6411C40.679 25.7287 40.4465 25.7516 40.2222 25.7069C39.9979 25.6623 39.7919 25.5522 39.6302 25.3905C39.4685 25.2288 39.3583 25.0228 39.3137 24.7985C39.2691 24.5742 39.292 24.3417 39.3795 24.1304C39.467 23.9192 39.6152 23.7386 39.8054 23.6115C39.9955 23.4845 40.2191 23.4167 40.4478 23.4167C40.7544 23.4167 41.0485 23.5385 41.2653 23.7553C41.4822 23.9722 41.604 24.2663 41.604 24.5729Z" fill="white"/>
<path d="M26.9582 31.8958C29.0868 31.8958 30.8123 30.1703 30.8123 28.0417C30.8123 25.9131 29.0868 24.1875 26.9582 24.1875C24.8296 24.1875 23.104 25.9131 23.104 28.0417C23.104 30.1703 24.8296 31.8958 26.9582 31.8958Z" fill="white"/>
<path d="M26.9583 39.6042C24.1622 39.6052 21.4605 38.5923 19.3542 36.7534C17.2478 34.9145 15.8795 32.3743 15.5031 29.6036C15.1267 26.8329 15.7676 24.0197 17.307 21.6855C18.8464 19.3513 21.18 17.6543 23.875 16.9093V12.1571C20.99 12.7153 18.3113 14.0484 16.1263 16.0132C13.9413 17.9781 12.3324 20.5007 11.472 23.3105C10.6117 26.1202 10.5324 29.1112 11.2427 31.9626C11.953 34.814 13.426 37.4183 15.5039 39.4961C17.5818 41.574 20.186 43.047 23.0374 43.7573C25.8888 44.4676 28.8798 44.3883 31.6896 43.528C34.4993 42.6676 37.0219 41.0587 38.9868 38.8737C40.9516 36.6887 42.2847 34.01 42.8429 31.125H38.0907C37.4152 33.5598 35.9614 35.7067 33.9512 37.2377C31.9411 38.7688 29.4851 39.5999 26.9583 39.6042Z" fill="white"/>
</svg>
