<svg width="314" height="234" viewBox="0 0 314 234" fill="none" xmlns="http://www.w3.org/2000/svg">
<g opacity="0.9" filter="url(#filter0_bd_65_2535)">
<rect x="159.154" y="46" width="122.251" height="122.251" rx="50" transform="rotate(7.59346 159.154 46)" fill="white"/>
</g>
<g opacity="0.9" filter="url(#filter1_bd_65_2535)">
<rect width="122.251" height="122.251" rx="50" transform="matrix(-0.991231 0.132143 0.132143 0.991231 154.18 46)" fill="white"/>
</g>
<g opacity="0.9" filter="url(#filter2_bd_65_2535)">
<rect x="76" y="35" width="156" height="156" rx="50" fill="white"/>
</g>
<path d="M190.853 140.896L169.594 119.638C167.546 122.833 164.832 125.547 161.637 127.595L182.895 148.854C183.951 149.909 185.382 150.502 186.874 150.502C188.367 150.502 189.798 149.909 190.853 148.854C191.908 147.799 192.501 146.367 192.501 144.875C192.501 143.383 191.908 141.951 190.853 140.896Z" fill="#CF3F44"/>
<path d="M131.596 121.404C129.411 119.337 127.663 116.854 126.454 114.1C125.246 111.346 124.602 108.378 124.56 105.37C124.518 102.363 125.079 99.3784 126.211 96.5919C127.342 93.8055 129.021 91.2742 131.148 89.1477C133.274 87.0211 135.805 85.3425 138.592 84.2109C141.378 83.0794 144.363 82.5179 147.37 82.5598C150.378 82.6016 153.346 83.2458 156.1 84.4544C158.853 85.663 161.337 87.4114 163.404 89.5962L168.702 84.2975C165.952 81.3662 162.64 79.0176 158.964 77.3912C155.288 75.7648 151.322 74.8938 147.303 74.83C143.283 74.7661 139.292 75.5107 135.566 77.0195C131.84 78.5283 128.455 80.7705 125.613 83.613C122.77 86.4555 120.528 89.8402 119.019 93.5662C117.511 97.2922 116.766 101.283 116.83 105.303C116.894 109.322 117.765 113.288 119.391 116.964C121.018 120.64 123.366 123.952 126.297 126.703L131.596 121.404Z" fill="#CF3F44"/>
<path d="M169.211 99.695C170.249 103.506 170.262 107.525 169.248 111.343C168.233 115.161 166.228 118.643 163.434 121.436C160.641 124.229 157.159 126.235 153.341 127.249C149.523 128.264 145.505 128.251 141.693 127.213L135.787 133.119C141.289 135.451 147.362 136.087 153.228 134.946C159.093 133.804 164.484 130.937 168.71 126.712C172.935 122.486 175.803 117.095 176.944 111.229C178.086 105.363 177.45 99.2905 175.117 93.7887L169.211 99.695Z" fill="#CF3F44"/>
<path d="M117.499 139.25C116.758 139.25 116.033 139.03 115.416 138.618C114.8 138.206 114.319 137.62 114.035 136.935C113.752 136.25 113.677 135.496 113.822 134.769C113.967 134.041 114.324 133.373 114.848 132.849L174.848 72.8488C175.555 72.1657 176.502 71.7877 177.486 71.7962C178.469 71.8048 179.409 72.1992 180.105 72.8944C180.8 73.5897 181.194 74.5303 181.203 75.5135C181.212 76.4967 180.834 77.444 180.15 78.1513L120.15 138.151C119.447 138.855 118.494 139.25 117.499 139.25Z" fill="#CF3F44"/>
<defs>
<filter id="filter0_bd_65_2535" x="105.184" y="8.18349" width="212.967" height="212.967" filterUnits="userSpaceOnUse" color-interpolation-filters="sRGB">
<feFlood flood-opacity="0" result="BackgroundImageFix"/>
<feGaussianBlur in="BackgroundImage" stdDeviation="22"/>
<feComposite in2="SourceAlpha" operator="in" result="effect1_backgroundBlur_65_2535"/>
<feColorMatrix in="SourceAlpha" type="matrix" values="0 0 0 0 0 0 0 0 0 0 0 0 0 0 0 0 0 0 127 0" result="hardAlpha"/>
<feMorphology radius="5" operator="dilate" in="SourceAlpha" result="effect2_dropShadow_65_2535"/>
<feOffset dy="4"/>
<feGaussianBlur stdDeviation="17"/>
<feComposite in2="hardAlpha" operator="out"/>
<feColorMatrix type="matrix" values="0 0 0 0 0 0 0 0 0 0 0 0 0 0 0 0 0 0 0.05 0"/>
<feBlend mode="normal" in2="effect1_backgroundBlur_65_2535" result="effect2_dropShadow_65_2535"/>
<feBlend mode="normal" in="SourceGraphic" in2="effect2_dropShadow_65_2535" result="shape"/>
</filter>
<filter id="filter1_bd_65_2535" x="-4.81641" y="8.18349" width="212.967" height="212.967" filterUnits="userSpaceOnUse" color-interpolation-filters="sRGB">
<feFlood flood-opacity="0" result="BackgroundImageFix"/>
<feGaussianBlur in="BackgroundImage" stdDeviation="22"/>
<feComposite in2="SourceAlpha" operator="in" result="effect1_backgroundBlur_65_2535"/>
<feColorMatrix in="SourceAlpha" type="matrix" values="0 0 0 0 0 0 0 0 0 0 0 0 0 0 0 0 0 0 127 0" result="hardAlpha"/>
<feMorphology radius="5" operator="dilate" in="SourceAlpha" result="effect2_dropShadow_65_2535"/>
<feOffset dy="4"/>
<feGaussianBlur stdDeviation="17"/>
<feComposite in2="hardAlpha" operator="out"/>
<feColorMatrix type="matrix" values="0 0 0 0 0 0 0 0 0 0 0 0 0 0 0 0 0 0 0.05 0"/>
<feBlend mode="normal" in2="effect1_backgroundBlur_65_2535" result="effect2_dropShadow_65_2535"/>
<feBlend mode="normal" in="SourceGraphic" in2="effect2_dropShadow_65_2535" result="shape"/>
</filter>
<filter id="filter2_bd_65_2535" x="32" y="-9" width="244" height="244" filterUnits="userSpaceOnUse" color-interpolation-filters="sRGB">
<feFlood flood-opacity="0" result="BackgroundImageFix"/>
<feGaussianBlur in="BackgroundImage" stdDeviation="22"/>
<feComposite in2="SourceAlpha" operator="in" result="effect1_backgroundBlur_65_2535"/>
<feColorMatrix in="SourceAlpha" type="matrix" values="0 0 0 0 0 0 0 0 0 0 0 0 0 0 0 0 0 0 127 0" result="hardAlpha"/>
<feMorphology radius="5" operator="dilate" in="SourceAlpha" result="effect2_dropShadow_65_2535"/>
<feOffset dy="4"/>
<feGaussianBlur stdDeviation="17"/>
<feComposite in2="hardAlpha" operator="out"/>
<feColorMatrix type="matrix" values="0 0 0 0 0 0 0 0 0 0 0 0 0 0 0 0 0 0 0.05 0"/>
<feBlend mode="normal" in2="effect1_backgroundBlur_65_2535" result="effect2_dropShadow_65_2535"/>
<feBlend mode="normal" in="SourceGraphic" in2="effect2_dropShadow_65_2535" result="shape"/>
</filter>
</defs>
</svg>
