<svg width="54" height="54" viewBox="0 0 54 54" fill="none" xmlns="http://www.w3.org/2000/svg">
<path d="M54 27C54 12.0883 41.9117 0 27 0C12.0883 0 0 12.0883 0 27C0 41.9117 12.0883 54 27 54C41.9117 54 54 41.9117 54 27Z" fill="#CF3F44"/>
<path d="M40.1178 25.2113C39.9597 25.2113 39.808 25.1484 39.6962 25.0366C39.5844 24.9248 39.5216 24.7731 39.5216 24.615C39.5186 21.9276 38.4497 19.3512 36.5494 17.4509C34.6491 15.5506 32.0727 14.4818 29.3853 14.4788C29.2272 14.4788 29.0755 14.4159 28.9637 14.3041C28.8519 14.1923 28.7891 14.0406 28.7891 13.8825C28.7891 13.7244 28.8519 13.5727 28.9637 13.4609C29.0755 13.3491 29.2272 13.2863 29.3853 13.2863C32.3889 13.2896 35.2685 14.4842 37.3923 16.608C39.5161 18.7319 40.7107 21.6115 40.7141 24.615C40.7141 24.7731 40.6512 24.9248 40.5394 25.0366C40.4276 25.1484 40.2759 25.2113 40.1178 25.2113Z" fill="white"/>
<path d="M35.3478 25.2113C35.1897 25.2113 35.038 25.1484 34.9262 25.0366C34.8144 24.9248 34.7516 24.7731 34.7516 24.615C34.75 23.1923 34.1841 21.8283 33.1781 20.8222C32.1721 19.8162 30.808 19.2503 29.3853 19.2488C29.2272 19.2488 29.0755 19.1859 28.9637 19.0741C28.8519 18.9623 28.7891 18.8106 28.7891 18.6525C28.7891 18.4944 28.8519 18.3427 28.9637 18.2309C29.0755 18.1191 29.2272 18.0563 29.3853 18.0563C31.1242 18.0583 32.7912 18.75 34.0208 19.9795C35.2503 21.2091 35.942 22.8762 35.9441 24.615C35.9441 24.7731 35.8812 24.9248 35.7694 25.0366C35.6576 25.1484 35.5059 25.2113 35.3478 25.2113Z" fill="white"/>
<path d="M31.3981 30.0856L29.26 32.7586C25.9484 30.8124 23.1887 28.0528 21.2422 24.7414L23.9152 22.6033C24.2283 22.3524 24.4496 22.005 24.5445 21.6152C24.6394 21.2254 24.6026 20.8151 24.4399 20.4484L22.003 14.9629C21.8284 14.5693 21.5197 14.2506 21.1318 14.0636C20.744 13.8767 20.3024 13.8336 19.8857 13.9421L15.2481 15.1436C14.8154 15.2568 14.4392 15.5248 14.1907 15.8967C13.9423 16.2687 13.8388 16.7188 13.9 17.1619C14.7143 22.9574 17.3931 28.3304 21.5314 32.4688C25.6697 36.6071 31.0427 39.2859 36.8383 40.1002C37.2812 40.1616 37.7312 40.0583 38.103 39.8099C38.4748 39.5615 38.7425 39.1853 38.8554 38.7527L40.058 34.1145C40.1663 33.6978 40.1231 33.2563 39.9362 32.8685C39.7492 32.4807 39.4307 32.1719 39.0373 31.9972L33.553 29.5639C33.1866 29.4007 32.7765 29.3634 32.3867 29.4578C31.9969 29.5522 31.6493 29.7729 31.3981 30.0856Z" fill="white"/>
</svg>
