<svg width="16" height="16" viewBox="0 0 16 16" fill="none" xmlns="http://www.w3.org/2000/svg">
<path d="M13.1669 11.021L10.4499 9.81399C10.1676 9.68774 9.85142 9.65852 9.55076 9.73088C9.25009 9.80324 8.98184 9.97312 8.78789 10.214L8.00489 11.193C6.72119 10.3693 5.62844 9.2806 4.79989 7.99999L5.77889 7.21699C6.01955 7.0231 6.18928 6.75504 6.26164 6.45458C6.33399 6.15413 6.3049 5.83818 6.17889 5.55599L4.97889 2.83199C4.84427 2.52867 4.60628 2.28304 4.30737 2.13889C4.00846 1.99475 3.66806 1.96147 3.34689 2.04499L1.04689 2.64499C0.713588 2.73174 0.423953 2.93831 0.233378 3.22518C0.0428019 3.51206 -0.0353403 3.85912 0.0138944 4.19999C0.442494 7.17471 1.82295 9.93061 3.94865 12.0552C6.07435 14.1799 8.83096 15.5589 11.8059 15.986C12.1468 16.0343 12.4936 15.9552 12.7799 15.7639C13.0662 15.5726 13.272 15.2825 13.3579 14.949L13.9579 12.649C14.0413 12.3279 14.0075 11.9876 13.8625 11.6892C13.7176 11.3908 13.4709 11.1538 13.1669 11.021Z" fill="#CF3F44"/>
<path d="M10 8C10 8.26522 10.1054 8.51957 10.2929 8.70711C10.4804 8.89464 10.7348 9 11 9C11.2652 9 11.5196 8.89464 11.7071 8.70711C11.8946 8.51957 12 8.26522 12 8C12 6.93913 11.5786 5.92172 10.8284 5.17157C10.0783 4.42143 9.06087 4 8 4C7.73478 4 7.48043 4.10536 7.29289 4.29289C7.10536 4.48043 7 4.73478 7 5C7 5.26522 7.10536 5.51957 7.29289 5.70711C7.48043 5.89464 7.73478 6 8 6C8.53043 6 9.03914 6.21071 9.41421 6.58579C9.78929 6.96086 10 7.46957 10 8Z" fill="#CF3F44"/>
<path d="M8 0C7.73478 0 7.48043 0.105357 7.29289 0.292893C7.10536 0.48043 7 0.734784 7 1C7 1.26522 7.10536 1.51957 7.29289 1.70711C7.48043 1.89464 7.73478 2 8 2C9.59081 2.00159 11.116 2.63424 12.2409 3.75911C13.3658 4.88399 13.9984 6.40919 14 8C14 8.26522 14.1054 8.51957 14.2929 8.70711C14.4804 8.89464 14.7348 9 15 9C15.2652 9 15.5196 8.89464 15.7071 8.70711C15.8946 8.51957 16 8.26522 16 8C15.9976 5.879 15.154 3.84555 13.6542 2.34578C12.1544 0.846002 10.121 0.00238211 8 0V0Z" fill="#CF3F44"/>
</svg>
