<svg width="193" height="24" viewBox="0 0 193 24" fill="none" xmlns="http://www.w3.org/2000/svg">
<path d="M0 23.8078L6.69413 0.1373H39.4869C39.4869 0.1373 40.5885 0.19222 41.4358 0.988558C42.3114 1.7849 47.6215 6.09611 47.6215 6.09611C47.6215 6.09611 48.5254 6.61785 47.4521 7.41419C46.3788 8.21053 37.0578 16.2563 37.0578 16.2563L41.69 19.9634L54.7958 7.85355C58.9479 4.14645 62.3656 0.16476 70.7262 0.21968C79.0868 0.2746 91.091 0.21968 91.091 0.21968L85.103 23.7803H75.3019L78.0982 15.0755H64.0603L67.3368 11.2037H79.3128L81.2899 5.05263H74.4828C72.9576 5.05263 68.8338 4.50343 63.0435 10.1053C57.2814 15.7071 48.3842 23.9176 48.3842 23.9176H32.6798L18.5854 10.8467H30.0812C30.0812 10.8467 30.6461 11.0664 31.9172 10.1602C33.1882 9.254 34.6287 8.21053 34.6287 8.21053C34.6287 8.21053 35.5891 7.63387 34.7417 7.05721C33.8943 6.48055 33.2164 5.87643 33.2164 5.87643C33.2164 5.87643 32.7645 5.43707 31.6065 5.46453C30.4484 5.49199 16.241 5.46453 16.241 5.46453L11.1569 23.8352L0 23.8078ZM96.8531 0.21968L90.7803 23.7803H100.355L106.428 0.21968H96.8531ZM112.896 0L149.841 0.10984L129.053 17.492H145.802L143.825 23.8902H106.202L128.94 5.71167H110.919L112.896 0ZM148.796 24L187.69 23.7803L189.187 19.0572H160.235L161.111 14.9108H186.419L188.622 9.41876H162.241L163.117 5.27231H190.712L193 0H154.699L148.796 24Z" fill="black"/>
</svg>
