<svg width="24" height="24" viewBox="0 0 24 24" fill="none" xmlns="http://www.w3.org/2000/svg">
<path d="M24 12C24 5.37258 18.6274 0 12 0C5.37258 0 0 5.37258 0 12C0 18.6274 5.37258 24 12 24C18.6274 24 24 18.6274 24 12Z" fill="#CF3F44"/>
<path d="M13.1875 16.9894L16.9886 13.1883C17.0871 13.0898 17.1652 12.9729 17.2185 12.8443C17.2718 12.7157 17.2993 12.5778 17.2993 12.4386C17.2993 12.2993 17.2718 12.1615 17.2185 12.0328C17.1652 11.9042 17.0871 11.7873 16.9886 11.6889L11.9992 6.7H6.69922V12L11.6881 16.9899C11.7866 17.0884 11.9035 17.1665 12.0321 17.2197C12.1608 17.273 12.2987 17.3004 12.4379 17.3003C12.5771 17.3003 12.715 17.2728 12.8436 17.2194C12.9722 17.1661 13.0891 17.0879 13.1875 16.9894V16.9894Z" stroke="white" stroke-width="1.06" stroke-linecap="round" stroke-linejoin="round"/>
<path d="M9.88031 10.94C10.4657 10.94 10.9403 10.4654 10.9403 9.88C10.9403 9.29458 10.4657 8.82 9.88031 8.82C9.29489 8.82 8.82031 9.29458 8.82031 9.88C8.82031 10.4654 9.29489 10.94 9.88031 10.94Z" stroke="white" stroke-width="1.06" stroke-linecap="round" stroke-linejoin="round"/>
</svg>
