<svg width="54" height="54" viewBox="0 0 54 54" fill="none" xmlns="http://www.w3.org/2000/svg">
<path d="M54 27C54 12.0883 41.9117 0 27 0C12.0883 0 0 12.0883 0 27C0 41.9117 12.0883 54 27 54C41.9117 54 54 41.9117 54 27Z" fill="#CF3F44"/>
<path d="M42.6902 27.0807L28.1382 12.5287C28.0132 12.4036 27.8436 12.3334 27.6668 12.3333H15.0002C14.8234 12.3333 14.6538 12.4036 14.5288 12.5286C14.4037 12.6536 14.3335 12.8232 14.3335 13V25.6667C14.3335 25.8435 14.4038 26.013 14.5288 26.138L20.3335 31.9427V41C20.3335 41.1768 20.4037 41.3464 20.5288 41.4714C20.6538 41.5964 20.8234 41.6667 21.0002 41.6667C21.177 41.6667 21.3465 41.5964 21.4716 41.4714C21.5966 41.3464 21.6668 41.1768 21.6668 41V22.906C21.0384 22.7437 20.4907 22.3578 20.1264 21.8207C19.7622 21.2835 19.6063 20.6319 19.6881 19.988C19.7699 19.3441 20.0837 18.7522 20.5707 18.3231C21.0577 17.8941 21.6844 17.6573 22.3335 17.6573C22.9825 17.6573 23.6093 17.8941 24.0963 18.3231C24.5833 18.7522 24.8971 19.3441 24.9789 19.988C25.0607 20.6319 24.9048 21.2835 24.5406 21.8207C24.1763 22.3578 23.6286 22.7437 23.0002 22.906V34.6093L29.0808 40.69C29.7059 41.3151 30.5538 41.6663 31.4378 41.6663C32.3219 41.6663 33.1697 41.3151 33.7948 40.69L42.6902 31.7947C43.3153 31.1695 43.6665 30.3217 43.6665 29.4377C43.6665 28.5536 43.3153 27.7058 42.6902 27.0807Z" fill="white"/>
</svg>
