<svg width="54" height="54" viewBox="0 0 54 54" fill="none" xmlns="http://www.w3.org/2000/svg">
<path d="M54 27C54 12.0883 41.9117 0 27 0C12.0883 0 0 12.0883 0 27C0 41.9117 12.0883 54 27 54C41.9117 54 54 41.9117 54 27Z" fill="#CF3F44"/>
<path d="M13.0649 41L15.1043 33.5534C13.8464 31.3742 13.1844 28.9019 13.1855 26.3693C13.1887 18.446 19.6372 12 27.5603 12C31.4057 12.0015 35.0149 13.4982 37.7289 16.2143C40.4429 18.9305 41.9367 22.541 41.9352 26.3807C41.932 34.304 35.4829 40.7508 27.5605 40.7508H27.5605H27.5546C25.1487 40.7498 22.7848 40.1465 20.6853 39.0017L13.0649 41ZM21.0383 36.4001L21.4746 36.659C23.309 37.7472 25.4117 38.323 27.5556 38.3238H27.5605C34.1457 38.3238 39.5055 32.9657 39.5082 26.3798C39.5094 23.1884 38.2678 20.1875 36.012 17.9299C33.7563 15.6723 30.7564 14.4282 27.5652 14.427C20.9749 14.427 15.6151 19.7847 15.6125 26.3702C15.6116 28.6269 16.2433 30.8249 17.4392 32.7266L17.7234 33.1784L16.5163 37.5859L21.0383 36.4001Z" fill="white"/>
<path fill-rule="evenodd" clip-rule="evenodd" d="M23.9677 20.3622C23.6762 19.662 23.3801 19.7568 23.1596 19.7458C22.9503 19.7354 22.7106 19.7332 22.4712 19.7332C22.2318 19.7332 21.8427 19.823 21.5134 20.1825C21.1842 20.5419 20.2563 21.4106 20.2563 23.1779C20.2563 24.9452 21.5434 26.6526 21.723 26.8923C21.9025 27.1319 24.2556 30.7587 27.8587 32.314C28.7156 32.6839 29.3847 32.9048 29.9063 33.0704C30.7667 33.3436 31.5497 33.3051 32.1686 33.2126C32.8586 33.1096 34.2936 32.344 34.5929 31.5052C34.8922 30.6665 34.8922 29.9476 34.8024 29.7978C34.7127 29.6481 34.4732 29.5582 34.1141 29.3785C33.7549 29.1988 31.989 28.3301 31.6597 28.2102C31.3305 28.0904 31.0911 28.0305 30.8516 28.39C30.6122 28.7494 29.9239 29.5582 29.7143 29.7978C29.5049 30.0375 29.2953 30.0674 28.9362 29.8877C28.577 29.708 27.4197 29.3288 26.0478 28.1055C24.9801 27.1535 24.2592 25.9776 24.0496 25.6181C23.8401 25.2587 24.0274 25.0643 24.2072 24.8853C24.3687 24.7245 24.5663 24.466 24.7459 24.2563C24.9255 24.0466 24.9854 23.8968 25.1051 23.6572C25.2248 23.4175 25.1649 23.2079 25.0751 23.0281C24.9854 22.8484 24.267 21.0811 23.9677 20.3622Z" fill="white"/>
</svg>
